<?xml version="1.0" encoding="UTF-8"?>
<svg width="3591px" height="1500px" viewBox="0 0 3591 1500" version="1.1" xmlns="http://www.w3.org/2000/svg" xmlns:xlink="http://www.w3.org/1999/xlink">
    <g stroke="none" stroke-width="1" fill="none" fill-rule="evenodd">
        <g transform="translate(300, 300)">
            <rect x="0" y="0" width="2991" height="1159"></rect>
            <g transform="translate(108.000000, 231.000000)" fill="#FFFFFF" fill-rule="nonzero">
                <path d="M481.5,391.5 C459.870301,391.5 434.471063,396.812026 408.221018,405.534866 L406.192182,406.215966 C396.77029,409.411255 388.019043,412.830799 381.050807,416.000562 L379.737414,416.604579 C376.529992,418.096648 373.885355,419.458855 371.631044,420.802424 C369.764433,421.914918 368.376255,422.855762 366.835839,424.152098 C365.544617,425.238708 364.485852,426.279453 363.35904,427.708735 L362.904953,428.299307 L362.631555,428.666737 C362.356809,429.042475 362.093365,429.423708 361.826281,429.841247 C359.702898,433.160781 358.5,437.047825 358.5,441.5 C358.5,453.374122 368.125878,463 380,463 C383.429234,462.999285 386.191798,462.117617 388.966746,460.718906 C390.006013,460.195064 390.990832,459.614732 391.970353,458.974721 L392.519991,458.60913 C392.879118,458.365955 393.226472,458.12222 393.57899,457.867951 L394.146,457.452 L394.273542,457.383562 C395.309902,456.819009 396.948245,456.007629 398.855448,455.140065 C404.821478,452.426191 413.032921,449.246427 421.778972,446.340137 L422.774745,446.011323 C442.370358,439.581508 462.64703,435.335256 478.102705,434.82197 L478.328,434.815 L478.61844,434.954618 C480.777607,435.977079 482.5627,436.584209 485.124664,436.868992 C490.792402,437.499007 496.478256,435.85152 500.931204,432.289019 C505.383079,428.72834 508.238978,423.543073 508.868992,417.875336 C509.499007,412.207598 507.85152,406.521744 504.289019,402.068796 L504.057988,401.780019 L503.813008,401.502978 C502.411496,399.918053 500.378915,398.087936 497.636457,396.333698 C492.972276,393.350212 487.566981,391.5 481.5,391.5 Z"></path>
                <path d="M1419.33133,262.536268 C1426.52976,250.756869 1422.81807,235.372344 1411.0403,228.171124 C1407.00741,225.70368 1402.35105,224.430345 1397.61784,224.502311 L1397.18213,224.512988 C1389.06276,224.782361 1381.59694,228.969909 1377.13798,235.725009 L1376.76907,236.297264 C1376.94806,235.970621 1362.95396,258.456635 1355.27494,271.047901 L1352.50247,275.608195 C1341.07312,294.454702 1330.0381,313.221739 1319.52968,331.865727 L1318.963,332.872 L1314.77219,333.965252 C1277.92644,343.514975 1250.86185,349 1241,349 L1240.5404,348.998594 C1238.42862,348.985533 1236.77934,348.882443 1235.5894,348.728421 L1235.476,348.713 L1235.04971,348.541015 L1234.52837,348.338056 C1232.96215,347.740094 1231.38506,347.245047 1229.66201,346.873275 C1224.51565,345.762874 1219.40572,345.844875 1213.81744,348.639789 C1207.89001,351.602543 1203.37929,356.802719 1201.28218,363.093849 C1199.18507,369.38498 1199.67341,376.251562 1202.63975,382.182586 L1202.90042,382.70378 L1203.19099,383.208913 C1203.36643,383.513898 1203.58575,383.881824 1203.85542,384.31025 C1204.49993,385.334182 1205.10894,386.215217 1205.998,387.267186 C1207.27058,388.772489 1208.70086,390.121998 1210.25784,391.314665 C1212.9996,393.414643 1216.05925,394.985138 1219.4548,396.14935 C1225.20637,398.121338 1232.03277,399 1241,399 L1241.51775,398.998263 C1251.78284,398.929836 1265.98227,396.839405 1285.06771,392.704351 L1287.405,392.192 L1286.90836,393.198065 C1280.35032,406.47637 1274.57237,418.986188 1269.63799,430.679229 L1268.82084,432.625571 C1256.42106,462.314837 1250,484.912923 1250,503.5 C1250,511.606335 1252.73687,519.228717 1257.45183,524.954179 C1258.39956,526.104949 1259.4106,527.153038 1260.47382,528.115546 C1263.01204,530.41334 1265.4701,531.960565 1267.68907,533.036496 L1268.36541,533.355501 L1268.65678,533.4803 C1281.34754,538.915955 1296.04198,533.035602 1301.47928,520.34555 C1303.84241,514.825386 1303.7455,509.469826 1302.27841,504.499755 L1302.09884,503.91508 C1301.54452,502.178587 1300.8507,500.597037 1300.04044,499.093654 L1299.837,498.724 L1299.84278,498.625995 C1300.30926,490.31367 1305.48443,474.339155 1315.70578,450.117702 L1316.17301,449.014393 C1324.95038,428.35906 1336.85155,404.336587 1351.1869,377.908583 L1352.401,375.675 L1358.59447,373.962271 C1391.1345,364.914387 1429.05957,353.670007 1471.78081,340.485152 L1479.269,338.169 L1479.02872,338.604115 C1434.21907,419.76748 1397.4108,497.087979 1369.47254,571.611409 C1332.11203,671.268054 1312,762.554882 1312,844.5 C1312,870.3401 1315.9701,892.81838 1322.68394,911.780693 C1322.97589,912.605252 1323.27268,913.420622 1323.57416,914.226938 C1325.90433,920.459091 1328.43174,925.952298 1331.00521,930.685879 C1331.94809,932.420203 1332.84585,933.956164 1333.67997,935.291404 L1334.21496,936.133881 C1334.38162,936.391732 1334.5364,936.62658 1334.6786,936.838338 L1335.12898,937.492096 C1343.13272,948.742645 1358.74138,951.374756 1369.99198,943.371096 L1370.32692,943.128712 C1381.18344,935.137088 1383.74334,919.956667 1376.10802,908.84683 L1375.92398,908.578103 L1375.82313,908.41845 C1375.49562,907.89346 1375.08579,907.182489 1374.608,906.281088 C1373.06908,903.377785 1371.43317,899.661609 1369.81607,895.094321 C1364.96743,881.400392 1362,864.597484 1362,844.5 C1362,769.558331 1380.94499,683.857667 1416.40355,589.229419 C1446.1715,509.787733 1486.66931,426.282199 1536.23489,338.747759 L1538.86995,334.105539 L1541.4787,329.53285 C1543.2302,326.470396 1545.00722,323.378362 1546.81499,320.247201 L1549.178,316.16 L1564.67032,311.20604 C1597.04339,300.8264 1629.91561,290.128215 1666.79431,278.015078 L1729.44405,257.416969 C1732.76876,256.332462 1735.48493,255.452209 1737.70243,254.740914 L1739.99567,254.01094 C1740.68968,253.792325 1741.35174,253.586052 1741.96757,253.396338 L1743.55655,252.912807 L1743.86679,252.802931 C1750.31136,251.248228 1755.87638,247.194757 1759.3343,241.535336 C1762.79222,235.875915 1763.85963,229.074392 1762.3016,222.627781 C1759.63186,211.566146 1749.81987,203.701236 1738.43607,203.503031 C1736.32024,203.465352 1734.20032,203.698346 1732.13548,204.19652 L1731.37268,204.38582 C1729.9152,204.759048 1728.46821,205.203628 1724.58524,206.44288 L1716.23867,209.133997 L1682.54688,220.195942 L1653.44051,229.773526 L1633.34767,236.364704 C1620.18602,240.674778 1607.46072,244.8264 1594.98715,248.877382 L1587.917,251.171 L1590.84699,246.396944 C1609.16925,216.596032 1628.46261,186.305646 1652.16587,149.788455 L1681.74125,104.324213 C1693.0132,86.9636985 1695.32163,83.267544 1700.88956,74.248001 L1702.22035,72.0841586 C1706.84393,64.5366987 1710.32307,58.5318067 1712.93653,53.5280422 L1714.45469,50.6030636 L1714.88035,49.7710425 C1715.21693,49.1080449 1715.51222,48.5122811 1715.79695,47.9188787 C1716.94548,45.5252516 1717.82627,43.360269 1718.52382,41.0199863 C1719.49447,37.7634695 1720,34.4573218 1720,31 C1720,22.8339114 1716.81085,15.5817596 1711.39794,9.86814127 C1705.61616,3.76513271 1697.39331,0 1688.5,0 C1682.01243,0 1675.7611,1.52745354 1669.26376,4.24430637 C1664.85737,6.08683347 1660.81588,8.22774818 1655.15304,11.5310829 C1650.76146,14.0928224 1646.479,16.8910196 1642.77437,19.609106 L1641.76743,20.3531115 C1637.36733,23.6295519 1634.6944,25.9878805 1631.97819,29.3832105 C1623.35359,40.1667771 1625.10251,55.8973628 1635.88324,64.5217851 L1636.20821,64.7774104 C1638.81971,66.7975384 1641.70921,68.2209351 1644.71008,69.0661475 L1644.963,69.135 L1610.71663,121.811865 C1573.98806,178.385031 1547.25925,220.893981 1519.39141,268.065825 L1515.69,274.345 L1506.11206,277.376161 L1495.67412,280.665209 C1459.29926,292.102311 1425.87251,302.345351 1395.78925,311.236069 L1388.04,313.517 L1389.19374,311.589013 C1391.62779,307.529603 1394.08082,303.467825 1396.5522,299.402697 L1401.6879,290.999442 C1408.22941,280.358238 1417.57931,265.332092 1419.13312,262.849113 L1419.33133,262.536268 Z"></path>
                <path d="M1612.96411,320.484169 L1600.40455,335.249112 C1599.2405,336.624217 1598.16595,337.902065 1597.13363,339.139961 L1595.24975,341.411972 C1593.01042,344.129265 1590.99574,346.637709 1589.12755,349.044201 C1584.42981,355.095483 1580.80577,360.301116 1577.95079,365.311934 C1573.3668,373.357348 1571,379.802283 1571,388 C1571,401.904103 1579.54734,413.107406 1590.83965,418.393129 C1597.11131,421.328837 1603.41501,422.5 1609.5,422.5 C1620.90507,422.5 1633.15349,419.056973 1649.11981,412.388705 L1650.25956,411.909306 C1655.97821,409.487116 1661.99241,406.688631 1668.17965,403.587983 L1669.131,403.108 L1669.32379,403.49238 C1672.38301,409.501122 1677.11562,414.477237 1682.92506,417.617518 C1686.57895,419.592561 1690.34197,420.818858 1694.14272,421.459582 C1696.68166,421.887592 1698.65485,422 1701,422 C1711.44998,422 1721.31411,418.626026 1735.13332,411.660131 L1735.8851,411.279136 C1744.68927,406.793593 1754.66256,400.887395 1765.82155,393.612372 L1766.739,393.012 L1766.30879,393.869321 C1754.86478,416.681853 1744.65193,438.944676 1736.16384,459.701315 L1735.09398,462.330869 C1717.78319,505.098306 1708.5,538.951284 1708.5,564 C1708.5,584.096665 1714.06371,600.194833 1724.61695,611.154041 C1733.56152,620.442525 1744.86258,625 1755.5,625 C1769.08111,625 1781.07622,618.712559 1792.77377,607.779541 C1802.09333,599.069102 1810.86142,587.429239 1818.54836,573.739247 L1819.05031,572.839689 C1835.04757,543.99107 1844.76421,509.139552 1844.99013,474.726226 L1844.992,474.196 L1845.03011,473.450579 C1846.01734,452.584825 1842.68123,430.768329 1834.60215,394.188531 L1832.57175,384.961648 L1831.102,378.12 L1832.09368,376.314949 L1833.597,373.587 L1834.42254,373.646312 C1837.81581,373.877565 1841.0429,374 1844,374 L1844.68715,373.997305 C1848.14628,373.970385 1851.95418,373.742243 1856.03373,373.333217 L1856.676,373.267 L1856.49764,373.752378 C1856.43288,373.934193 1856.36981,374.117984 1856.30844,374.303881 C1855.46656,376.854073 1855.05639,379.469895 1855.00545,382.200261 L1854.99995,382.947784 L1855.00459,384.128425 C1855.01045,384.638601 1855.02295,385.070192 1855.04806,385.610554 C1855.11668,387.087901 1855.26599,388.529877 1855.53966,390.036035 C1856.27219,394.067524 1857.80382,397.92011 1860.26584,401.503479 C1866.08563,409.973962 1875.52095,413.86719 1884.8691,413.86719 C1891.05246,413.86719 1895.95659,412.59214 1903.24539,409.836999 C1908.1147,407.996416 1913.61856,405.52164 1919.9271,402.384386 L1920.7725,401.962376 C1923.78494,400.453011 1926.95753,398.804278 1930.26527,397.032 L1932.641,395.75 L1932.65819,395.86415 C1934.17538,405.693917 1940.10394,413.74321 1947.80772,418.58435 C1950.48001,420.263581 1953.20222,421.496214 1955.9119,422.40197 L1956.37556,422.553845 C1957.74945,422.994596 1958.96852,423.302616 1960.00231,423.50676 L1960.07271,423.521538 C1961.67423,423.839446 1963.30304,423.999699 1964.93582,424 C1989.92652,424 2019.38779,409.796459 2052.27342,386.082449 L2054.31009,384.604217 C2064.33282,377.276552 2073.71334,369.588197 2081.61943,362.240836 L2081.959,361.923 L2082.5382,362.485312 C2083.00868,362.937395 2083.48668,363.386923 2083.97246,363.833965 L2084.55214,364.362395 C2089.21403,368.572232 2094.46288,372.358753 2100.27495,375.66699 L2100.708,375.911 L2100.62689,376.142113 C2098.33508,382.669908 2097.1191,389.297243 2097.1191,396 C2097.1191,412.603696 2103.75178,427.21001 2115.48776,436.694183 C2125.41775,444.718899 2137.83533,448.5 2150.7598,448.5 C2151.82819,448.5 2152.897,448.476016 2153.96837,448.428377 L2154.72029,448.392204 C2164.55887,447.882253 2172.06242,446.022439 2189.46775,440.496307 L2195.69593,438.512824 C2215.06185,432.37111 2226.32102,429.184188 2243.90833,425.221834 L2244.8399,425.012553 C2246.08519,424.73358 2247.34049,424.456844 2248.60634,424.1823 C2316.24562,409.512337 2410.19422,401 2546.5898,401 C2623.75207,401 2703.61978,408.450724 2762.70362,421.762853 L2764.84321,422.249622 C2794.65667,429.098404 2818.53801,437.369257 2834.17554,446.252995 C2841.45949,450.391036 2846.56155,454.399037 2849.50336,457.98294 L2849.71578,458.245184 C2850.47405,459.194261 2851.00727,460.00703 2851.36668,460.717229 L2851.449,460.885 L2851.4275,460.892453 C2851.08267,460.999864 2850.70283,461.106014 2850.29031,461.207381 C2848.22691,461.714416 2845.73663,462 2843,462 C2838.09027,462 2834.13487,461.174553 2830.96886,459.874351 L2830.71041,459.766752 C2830.04153,459.484381 2829.53487,459.23905 2829.17894,459.044305 L2829.057,458.976 L2829.00205,458.934522 C2818.22662,450.91669 2802.95462,452.845773 2794.52906,463.431999 C2785.93135,474.237244 2787.71968,489.963473 2798.52203,498.560871 L2798.67406,498.68067 C2799.50841,499.331624 2800.67672,500.158422 2802.16679,501.096675 C2804.40569,502.506432 2806.92794,503.882255 2809.72571,505.153416 C2810.46249,505.488169 2811.21214,505.812555 2811.9746,506.125673 C2820.98337,509.82539 2831.40748,512 2843,512 C2857.21288,512 2870.16262,508.82065 2880.71471,501.949122 C2893.87706,493.37779 2902,479.117862 2902,463 C2902,438.073407 2885.89552,418.129692 2858.87326,402.778253 C2837.72844,390.765809 2809.17232,380.980984 2773.69288,372.987147 C2710.51083,358.751663 2627.39217,351 2546.5898,351 C2406.85302,351 2309.42335,359.828975 2238.00886,375.3177 L2236.52718,375.640397 C2235.54623,375.854946 2234.57873,376.068376 2233.62349,376.280969 L2232.229,376.592 L2232.31524,376.537572 C2235.25787,374.623511 2237.95022,372.475953 2240.39717,370.052766 C2248.05241,362.472062 2252.6094,352.358959 2252.6094,341.5 C2252.6094,327.073206 2245.18836,314.272148 2233.47497,307.316869 C2225.17368,302.387672 2216.06197,300.5 2205.9492,300.5 C2182.66565,300.5 2157.17022,312.013392 2135.21132,330.280991 L2134.16515,331.159104 C2133.12367,332.041125 2132.09639,332.93478 2131.08425,333.839292 L2129.971,334.844 L2129.92141,334.8228 C2125.08317,332.694953 2121.13729,330.084353 2117.83023,327.041026 C2114.7022,324.162468 2112.27929,321.023956 2110.05576,317.246694 C2109.72201,316.679726 2109.40388,316.106904 2109.05159,315.44077 L2107.08135,311.602757 L2106.75144,310.979045 C2105.767,309.138322 2104.82189,307.560773 2103.69237,305.961676 L2102.98851,304.984029 L2102.64568,304.54097 L2102.38926,304.216739 L2102.28317,304.087559 L2102.02658,303.78277 L2101.70815,303.416028 C2101.52904,303.214525 2101.34668,303.015932 2101.16115,302.820328 L2100.93232,302.580189 L2100.49968,302.14652 L2100.21385,301.870782 L2099.767,301.457 L2099.55728,301.269127 L2099.15863,300.923931 L2098.6932,300.540494 L2098.42663,300.328231 L2098.08718,300.06683 L2097.74925,299.814409 L2097.28302,299.481624 L2096.83342,299.175537 L2096.4613,298.933605 C2096.3437,298.858502 2096.23079,298.787781 2096.11732,298.717965 L2095.74681,298.493517 C2095.49278,298.342999 2095.22583,298.191404 2094.95274,298.042906 L2094.44522,297.773695 C2093.92982,297.508152 2093.40533,297.260619 2092.87272,297.031545 L2092.26145,296.780256 C2092.17763,296.74744 2092.10339,296.720021 2091.936,296.659 L2091.764,296.592 L2091.76697,296.58851 L2091.20047,296.38341 L2091.06252,296.335901 L2090.46821,296.141905 C2090.26932,296.079724 2090.06967,296.020032 2089.86929,295.962844 L2089.16713,295.772647 L2088.77737,295.676737 L2088.23158,295.553612 L2087.69812,295.445248 C2087.63376,295.432923 2087.56852,295.42068 2087.50323,295.408696 L2086.99998,295.322541 C2086.671,295.269297 2086.35369,295.22419 2086.03983,295.185716 L2085.938,295.174 L2085.2294,293.933488 L2084.436,295.042 L2084.2134,295.02939 L2083.74459,295.010955 L2083.22323,295.000983 L2082.7831,295.000523 L2082.117,295.015852 L2081.67843,295.035445 L2081.06358,295.074545 L2080.26261,295.150736 L2079.64047,295.227088 L2079.15027,295.298308 L2078.72965,295.367976 L2078.28703,295.448758 C2078.00621,295.502537 2077.72634,295.561129 2077.44753,295.624508 L2077.07187,295.712916 L2076.39852,295.88688 L2075.60989,296.118366 L2074.71573,296.413946 L2074.01217,296.67192 L2073.81381,296.749255 C2073.63522,296.819548 2073.44685,296.896522 2073.25592,296.97733 L2072.59766,297.266686 L2072.08016,297.510836 C2071.76686,297.663684 2071.48681,297.806943 2071.20954,297.955448 L2070.80129,298.178975 L2070.49337,298.354298 C2070.22014,298.511936 2069.94993,298.674732 2069.68287,298.842598 L2069.207,299.149986 L2068.77953,299.439902 L2068.24731,299.818573 C2068.19745,299.855544 2068.14124,299.898027 2068.045,299.971 L2067.8926,300.080544 L2067.53031,300.360616 L2067.094,300.711543 L2066.78918,300.967931 L2066.4148,301.292949 L2066.11484,301.563992 L2065.9252,301.740123 C2065.69645,301.953983 2065.47175,302.172121 2065.2512,302.394423 L2064.68075,302.991096 C2064.66356,303.009972 2064.64399,303.031558 2064.621,303.057 L2064.54044,303.141104 C2064.36145,303.33686 2064.1856,303.535452 2064.01294,303.736804 L2063.61719,304.211262 L2063.09356,304.877523 C2063.00399,304.994584 2062.96166,305.051784 2062.81351,305.251982 L2062.67874,305.438108 L2062.42657,305.797247 L2062.182,306.161 L2062.14677,306.210071 C2062.00002,306.432369 2061.85684,306.656998 2061.71727,306.883871 C2061.57014,307.12114 2061.41918,307.375775 2061.26891,307.640471 L2060.824,308.457 L2060.77336,308.555424 C2060.50787,309.070762 2060.26038,309.595179 2060.03136,310.127724 L2059.88965,310.46572 L2059.69858,310.952933 L2059.645,311.096 L2059.64065,311.094299 C2059.54548,311.343474 2059.4543,311.594156 2059.36715,311.846249 L2059.23341,312.247744 C2059.10566,312.640423 2058.99516,313.008858 2058.89509,313.372874 L2058.81,313.689 L2058.75282,313.769629 C2057.4022,315.600439 2055.1312,318.192352 2052.26385,321.090944 C2045.13681,328.295629 2034.94354,336.887098 2023.91256,344.889024 L2023.22302,345.387393 C2017.01133,349.860517 2010.64591,354.002384 2004.46057,357.665161 L2003.788,358.062 L2004.36191,357.273966 C2008.97626,350.956191 2013.80378,344.875671 2018.52199,339.510948 C2027.49052,329.268755 2026.65336,313.791689 2016.66442,304.606038 L2016.35692,304.327857 C2006.56605,295.614194 1991.71402,295.961641 1982.34119,305.057052 L1982.25776,305.149199 C1982.11229,305.274818 1981.88845,305.460932 1981.60142,305.693219 L1980.98116,306.188709 C1980.23476,306.778365 1979.31582,307.48366 1978.27014,308.267495 L1977.91694,308.531631 C1974.57538,311.024915 1970.466,313.936825 1966.16558,316.835367 L1965.1389,317.52567 C1963.41462,318.682227 1961.62553,319.868495 1959.78443,321.076193 L1957.902,322.305 L1957.879,322.044658 C1957.19752,315.166835 1953.68351,308.60207 1947.64073,304.23601 L1947.26197,303.967778 C1941.67614,300.08915 1934.75461,298.652753 1928.08999,299.987684 L1927.50743,300.110449 C1923.045,301.097801 1918.93833,303.289767 1915.63447,306.447716 L1915.29455,306.779574 L1914.81235,307.026225 C1913.79163,307.536944 1912.43881,308.148671 1910.86087,308.798443 L1910.46176,308.961642 C1904.93875,311.204358 1897.27642,313.70716 1888.85317,316.007026 L1888.15587,316.196425 C1880.73869,318.200607 1873.06311,319.942374 1866.03409,321.268777 L1864.399,321.571 L1865.37461,320.025223 L1867.44285,316.771938 L1867.881,316.086 L1871.47313,313.074746 C1895.15388,293.166347 1916.68178,274.055783 1933.1718,258.224492 L1935.4366,256.040621 C1945.21785,246.569135 1953.15994,238.358052 1959.06514,231.560819 L1959.49359,231.065986 C1962.89702,227.121728 1965.58652,223.69524 1967.74488,220.468691 L1968.89148,218.730225 L1969.3777,217.974599 C1969.60955,217.608348 1969.82788,217.253495 1970.0479,216.88329 C1972.9068,212.072906 1974.5,207.044145 1974.5,201 C1974.5,191.567487 1970.2558,182.269675 1962.59665,176.653059 C1956.77754,172.385588 1951.00452,171 1945,171 C1931.10737,171 1919.11842,177.218387 1905.04604,189.039692 C1894.49676,197.901357 1883.11848,210.04039 1870.76447,225.36255 L1870.03431,226.270669 C1857.85574,241.459982 1844.7132,259.961057 1830.81269,281.297652 L1829.883,282.725 L1826.82219,285.360365 C1826.26195,285.837309 1825.79436,286.228968 1825.31545,286.622536 L1824.06836,287.646292 C1798.30609,308.772457 1773.24407,327.934745 1751.91435,342.708269 L1751.378,343.078 L1751.41152,343.00593 C1756.15203,332.174844 1752.64824,319.331024 1742.75918,312.464195 C1732.21086,305.139578 1717.82876,306.998043 1709.48882,316.763415 L1706.568,320.23 L1706.10105,320.708517 C1706.02251,320.786713 1705.9623,320.844541 1705.90547,320.897036 L1705.82088,320.973658 C1703.53439,323.009341 1700.20905,325.634567 1696.20528,328.540492 C1687.60482,334.782761 1676.39,341.972974 1664.79524,348.635641 L1663.70385,349.260597 C1657.88554,352.580678 1652.10952,355.690409 1646.55885,358.490943 L1646.108,358.716 L1649.14529,355.146666 C1650.25603,353.83464 1651.25113,352.65098 1652.20626,351.504816 C1656.45097,346.41211 1658.49892,339.839691 1657.89821,333.235346 C1657.29751,326.631001 1654.09738,320.535925 1649.00205,316.291413 C1643.91212,312.049009 1637.33966,310.001061 1630.73528,310.601795 C1624.28449,311.188558 1618.31957,314.255274 1614.09042,319.145697 L1612.96411,320.484169 Z M1945,191 C1946.3056,191 1948.5269,191.13663 1950.7695,192.78125 C1953.0122,194.42587 1954.5,197.63889 1954.5,201 C1954.5,203.961097 1953.46653,205.775671 1952.09809,207.867905 L1951.3574,208.99219 C1949.639,211.61223 1947.2962,214.58748 1944.3516,218 L1943.51432,218.963278 C1937.68736,225.620133 1929.7051,233.79579 1920.1172,243.03125 L1918.3503,244.727028 C1900.49777,261.800113 1877.18726,282.293593 1852.7031,302.70508 C1844.4336,315.55828 1836.1851,328.97344 1828.0664,342.91406 C1833.7914,343.54984 1839.4754,344 1844,344 C1855.4667,344 1876.0956,340.22241 1894.1211,335.30078 C1903.1338,332.83997 1911.569,330.09805 1917.9863,327.49219 C1921.195,326.18926 1923.9021,324.91462 1925.8496,323.79883 C1926.7729,323.26987 1927.5024,322.74511 1928.0312,322.33398 L1929.3809,320.97656 C1930.07771,320.282885 1930.96358,319.81005 1931.9277,319.61719 C1933.3184,319.311719 1934.77338,319.613655 1935.9277,320.44727 C1938.16577,322.064329 1938.66942,325.189417 1937.0527,327.42773 C1936.2208,328.57964 1935.2792,329.48689 1934.2227,330.29297 L1928.88477,335.659503 C1924.26687,340.326874 1917.49107,347.236603 1910.0742,355.01367 L1908.03258,357.160238 C1902.37219,363.128212 1896.84558,369.09822 1892.5539,374.01996 L1892.0449,374.60547 C1889.6141,377.41046 1887.6084,379.86232 1886.3066,381.63867 L1885.9696,382.107139 C1885.55103,382.700506 1885.25402,383.168032 1885.0605,383.5 L1885.0898,383.82812 L1885.30267,383.811505 C1886.44362,383.696771 1889.18888,383.07865 1892.6367,381.77539 C1896.30869,380.38741 1900.83807,378.353706 1905.878,375.865535 L1906.5684,375.52344 C1916.87967,370.395576 1929.25136,363.436256 1941.46847,356.131133 L1942.6133,355.44531 C1954.43717,348.34894 1966.06566,340.964641 1975.53791,334.632083 L1978.22662,332.823005 C1987.28479,326.679051 1994.31319,321.316079 1995.99822,319.681597 L1996.1445,319.53516 C1998.02985,317.582512 2001.12867,317.490448 2003.12662,319.327725 C2005.12457,321.165003 2005.29201,324.260663 2003.5039,326.30273 C1992.6116,338.68756 1982.1112,353.46126 1974.4238,366.01758 L1973.61095,367.354334 C1970.13588,373.108761 1967.28223,378.353276 1965.3066,382.55469 L1965.02407,383.165791 C1963.14499,387.299812 1962.31897,390.543238 1962.2807,390.873633 L1962.2793,390.89258 C1962.2793,392.24792 1962.7245,392.5269 1963.7695,393.18359 C1964.6348,393.72733 1965.2604,393.86303 1965.5449,393.93945 C1982.3996,393.60634 2011.671,378.47734 2035.6562,361.07812 L2037.38029,359.818361 C2048.81751,351.400761 2059.0925,342.62666 2066.4824,335.15625 C2070.3621,331.23428 2073.447,327.6564 2075.4355,324.82617 C2077.4241,321.99595 2078.002,320.109141 2078,320 L2078.002,319.85547 C2078.00573,319.730197 2078.01417,319.605109 2078.0273,319.48047 C2078.04021,319.355501 2078.05782,319.231062 2078.0801,319.10742 L2078.1289,318.87305 L2078.1621,318.74023 C2078.19339,318.619139 2078.22922,318.499265 2078.2695,318.38086 L2078.34562,318.175745 L2078.4043,318.0293 L2078.47577,317.87078 L2078.5664,317.68945 C2078.62416,317.578442 2078.68607,317.469642 2078.752,317.36328 L2078.89487,317.146048 L2078.98691,317.018262 L2079.13506,316.828538 L2079.24758,316.69587 L2079.4492,316.48047 L2079.584,316.34961 L2079.78474,316.170418 L2080.06425,315.953828 L2080.25055,315.824517 L2080.40679,315.725793 L2080.6523,315.58594 L2080.87191,315.475289 L2081.07681,315.384926 L2081.34558,315.282861 L2081.5664,315.21094 L2081.80455,315.144907 L2082.082,315.08594 L2082.25,315.05664 L2082.6523,315.01172 L2082.96385,314.999869 L2083.1445,315.00195 C2083.26977,315.00571 2083.39486,315.01418 2083.5195,315.02734 C2083.64449,315.040226 2083.76894,315.057818 2083.8926,315.08008 L2084.0762,315.11719 L2084.2598,315.16211 C2084.38087,315.193411 2084.50072,315.229243 2084.6191,315.26953 L2084.7969,315.33398 L2084.9707,315.4043 L2085.12924,315.47578 L2085.3105,315.56641 C2085.42152,315.624153 2085.53033,315.686043 2085.6367,315.75195 L2085.86072,315.898892 L2086.0977,316.07617 L2086.2441,316.19531 L2086.44283,316.374542 L2086.58558,316.515985 L2086.7773,316.72461 L2086.9131,316.886684 L2087.10035,317.140103 L2087.1543,317.21875 C2089.216,320.04334 2090.3308,323.16349 2092.8203,327.39258 C2095.3754,331.73309 2098.9356,336.83311 2104.2871,341.75781 C2111.0914,348.01947 2120.8469,354.0736 2135.3809,357.66992 C2139.2203,353.46252 2143.4688,349.42734 2148.002,345.65625 C2165.3444,331.22911 2186.8623,320.5 2205.9492,320.5 C2211.7458,320.5 2217.9506,321.35882 2223.2637,324.51367 C2228.5768,327.66853 2232.6094,333.75933 2232.6094,341.5 C2232.6094,347.00126 2230.1603,352.04305 2226.3242,355.8418 C2222.4882,359.64055 2217.3672,362.44132 2211.3262,364.63672 C2199.244,369.02753 2183.2764,371 2165.4297,371 C2155.6687,371 2147.1075,370.10348 2139.4082,368.6543 C2131.8206,378.24805 2127.1191,388.12351 2127.1191,396 C2127.1191,404.7775 2130.063,409.90198 2134.3438,413.36133 C2138.6244,416.82067 2144.6695,418.5 2150.7598,418.5 C2166.7457,418.5 2187.0627,406.83216 2242.248,394.86328 C2297.4334,382.8944 2387.6854,371 2546.5898,371 C2622.1051,371 2704.9324,377.99615 2769.2969,392.49805 C2801.4791,399.74899 2829.0371,408.83033 2848.9941,420.16797 C2868.9511,431.50561 2882,445.70763 2882,463 C2882,472.57708 2877.0722,480.45431 2869.8008,485.18945 C2862.5294,489.92459 2853.137,492 2843,492 C2832.863,492 2824.9668,489.84041 2819.5723,487.625 C2814.1777,485.40959 2810.9766,482.91211 2810.9766,482.91211 C2808.81613,481.19263 2808.45846,478.047385 2810.1777,475.88672 C2811.84663,473.789808 2814.85867,473.391229 2817.00996,474.941574 L2817.47396,475.29218 C2818.12479,475.761125 2819.97949,476.982149 2823.3711,478.375 L2824.03953,478.64287 C2828.37805,480.33903 2834.71315,482 2843,482 C2851.723,482 2859.3301,480.07541 2864.3438,476.81055 C2869.3574,473.54569 2872,469.42292 2872,463 C2872,450.79237 2862.548,439.36939 2844.0547,428.86328 C2825.5614,418.35717 2798.7186,409.37601 2767.0996,402.25195 C2703.8616,388.00385 2621.4846,381 2546.5898,381 C2388.1843,381 2298.6868,392.8556 2244.3672,404.63672 C2190.0475,416.41784 2171.1039,428.5 2150.7598,428.5 C2142.88,428.5 2134.6054,426.42933 2128.0586,421.13867 C2121.5118,415.84802 2117.1191,407.2225 2117.1191,396 C2117.1191,385.88252 2121.6089,375.65598 2128.5996,366.04102 C2114.8379,361.93339 2104.7282,355.75453 2097.5156,349.11719 C2091.2534,343.35439 2087.084,337.36066 2084.2031,332.4668 C2083.89,331.93494 2083.63,331.46067 2083.3379,330.94922 C2080.8753,334.39121 2077.5901,338.14379 2073.5898,342.1875 C2065.51231,350.352949 2054.60339,359.61773 2042.46354,368.490183 L2041.5273,369.17188 C2016.4979,387.32845 1987.1702,404 1964.9395,404 C1964.69456,403.999955 1964.45007,403.981914 1964.208,403.94607 L1963.86373,403.883449 C1963.34152,403.772857 1960.91591,403.200443 1958.4492,401.65039 C1955.6643,399.90033 1952.2793,396.12424 1952.2793,390.89258 C1952.2793,386.79046 1953.9035,383.30778 1956.2578,378.30078 C1958.6122,373.29378 1961.9077,367.31209 1965.8965,360.79688 C1968.6179,356.35179 1977.3438,348.41602 1975.0254,346.87695 C1972.73042,345.353426 1957.76112,357.944647 1948.05525,363.84303 L1947.7598,364.02148 C1935.0202,371.66741 1922.0382,378.99789 1911.0215,384.47656 L1909.38411,385.284301 C1904.78825,387.532559 1900.56565,389.433641 1896.82828,390.878662 L1896.1738,391.12891 C1891.8445,392.76537 1888.3793,393.86719 1884.8691,393.86719 C1881.974,393.86719 1878.5463,392.79218 1876.75,390.17773 C1875.02279,387.663845 1874.99916,385.291057 1874.9999,383.054805 L1875,382.78711 C1875,380.558084 1875.62552,379.817697 1876.16287,378.893242 L1876.2324,378.77148 C1876.7837,377.78684 1877.4443,376.81462 1878.2402,375.72852 C1879.73251,373.692083 1881.69504,371.296471 1884.01877,368.599941 L1884.4883,368.05664 C1889.5472,362.21901 1896.1933,355.07854 1902.8359,348.11328 C1905.1256,345.71245 1911.0215,342.91406 1909.5586,341.13867 C1908.0957,339.36328 1901.2026,343.73456 1896.7539,344.94922 C1878.1544,350.02759 1857.5333,354 1844,354 C1837.7862,354 1830.0765,353.34273 1822.6035,352.31445 C1818.3236,359.82486 1814.1258,367.4305 1809.9902,375.07227 L1812.8567,388.414361 C1813.31573,390.538032 1813.7944,392.733565 1814.30839,395.055063 L1815.35759,399.788276 C1820.7983,424.460701 1826.21664,451.814538 1824.9941,473.63477 C1824.9666,507.60772 1814.6215,539.88278 1801.1094,563.94727 C1794.3443,575.99553 1786.7948,585.99217 1779.1172,593.16797 C1771.4396,600.34377 1763.6007,605 1755.5,605 C1751.5,605 1744.9451,603.43064 1739.0234,597.28125 C1733.1018,591.13186 1728.5,580.64947 1728.5,564 C1728.5,540.36841 1738.7612,506.18866 1754.6758,467.27148 C1766.8304,437.54882 1782.379,405.23285 1799.4238,373.50977 C1798.7648,370.38817 1797.8264,366.50838 1797.2969,363.67578 L1796.99174,362.023845 C1796.052,356.86789 1795.37197,352.417103 1795.1465,348.41602 L1792.27157,350.558758 C1781.27291,358.732965 1770.53968,366.435965 1760.5391,373.13086 L1758.53465,374.466779 C1746.56328,382.40935 1735.59691,389.029169 1726.1309,393.80078 L1724.86561,394.433483 C1715.45258,399.100904 1707.75259,402 1701,402 L1700.32434,401.99449 C1698.56411,401.96032 1695.57001,401.717746 1692.4355,400.02344 C1688.8533,398.08709 1685.5,393.48148 1685.5,387.5 C1685.5,383.58991 1686.9975,380.0252 1689.1426,376 C1691.0262,372.46536 1697.9668,365.97656 1696.6016,364.41797 C1695.2364,362.85938 1685.5969,371.28306 1679.7402,374.64844 C1667.0364,381.94838 1653.642,388.82582 1641.4121,393.93359 C1629.1822,399.04136 1618.3157,402.5 1609.5,402.5 C1607.0357,402.5 1603.2715,402.12971 1599.3184,400.2793 C1595.3652,398.42888 1591,394.08333 1591,388 C1591,383.58333 1592.8344,379.58962 1595.3281,375.21289 C1597.8218,370.83616 1601.158,366.16199 1604.9258,361.30859 C1612.4613,351.60181 1621.7427,341.19738 1629.1582,332.29883 C1630.0071,331.279752 1631.22612,330.639715 1632.54699,330.519568 C1633.86787,330.399421 1635.18236,330.809011 1636.2012,331.6582 C1637.22026,332.507102 1637.86029,333.726118 1637.98043,335.046987 C1638.10057,336.367855 1637.69098,337.682339 1636.8418,338.70117 C1629.2573,347.80262 1620.0387,358.14819 1612.8242,367.44141 C1609.217,372.08801 1606.1157,376.47634 1604.0156,380.16211 C1601.9156,383.84788 1601,386.91667 1601,388 C1601,389.91667 1601.6348,390.32112 1603.5566,391.2207 C1605.4785,392.12029 1608.4643,392.5 1609.5,392.5 C1615.4343,392.5 1625.8803,389.58364 1637.5566,384.70703 C1649.233,379.83043 1662.3386,373.11412 1674.7598,365.97656 L1676.88225,364.749023 C1688.51568,357.977312 1699.45296,350.896014 1707.9531,344.72656 C1712.4608,341.45488 1716.2868,338.43373 1719.1191,335.91211 C1720.0559,335.07817 1720.6955,334.38832 1721.3984,333.66602 C1722.5341,332.33195 1723.5411,331.10556 1724.6973,329.75195 C1726.36542,327.798719 1729.24207,327.426997 1731.35191,328.892037 C1733.46174,330.357078 1734.11846,333.182325 1732.8711,335.42773 C1732.7135,335.71132 1732.4494,335.95582 1732.2754,336.23047 C1732.1492,336.41479 1732.047,336.55281 1731.9688,336.64453 C1731.0349,338.03039 1729.8702,339.41423 1728.4941,340.76758 L1725.54119,344.247786 C1717.98674,353.173061 1711.05255,361.5599 1705.8418,368.64844 L1705.00966,369.789347 C1702.01093,373.934026 1699.59553,377.646807 1697.9668,380.70312 C1696.19,384.0373 1695.5,386.66009 1695.5,387.5 C1695.5,390.51852 1696.1467,390.66291 1697.1895,391.22656 C1698.2322,391.79021 1700.0833,392 1701,392 C1704.5723,392 1712.2204,389.61565 1721.6289,384.87305 C1731.0374,380.13045 1742.4402,373.2147 1754.9766,364.82227 C1780.0493,348.03739 1809.6978,325.34372 1838.0137,302.07422 C1840.4647,300.05998 1842.6426,298.08999 1845.0703,296.07031 L1846.90234,293.241359 C1860.03001,273.040199 1873.10579,254.432686 1885.47237,238.988378 L1886.334,237.91602 C1897.5831,223.96424 1908.21,212.50194 1917.9102,204.35352 C1927.44306,196.34558 1936.00121,191.180361 1944.55006,191.00463 L1945,191 Z"></path>
                <path d="M327.041317,208.97569 L325.937245,208.97569 L323,209 C283.573423,209 243.503472,219.902233 209.830684,237.798266 C194.820653,245.77563 181.906273,254.763572 172.219039,264.00643 C166.716389,269.256667 162.498099,274.111991 159.257325,279.300285 C154.92314,286.23907 152.5,293.606692 152.5,301.5 L152.503549,302.077137 C152.654865,314.368493 157.635882,325.31732 165.859828,333.951433 L166.08,334.181 L165.403342,334.440809 C142.679754,343.17548 120.636104,354.267518 100.550471,367.284879 C40.2107192,406.390671 2.36628555,458.735222 0.0660027474,517.544896 L-1.13686838e-13,519.597057 L-1.13686838e-13,520 C-1.13686838e-13,535.028662 2.94716223,551.034908 9.41995396,566.701161 C17.3951364,586.003685 30.2789645,603.728793 48.4662524,618.931145 C91.4601419,654.868774 160.63128,674.5 260,674.5 C377.035956,674.5 516.534808,652.782973 650.518868,616.96405 L654.539086,615.884439 C711.399464,600.546037 764.276771,583.35595 807.694407,566.234517 L810.399193,565.163408 C854.323493,547.695239 885.799523,531.53093 903.549159,516.667923 C906.286955,514.375843 908.539655,511.712897 910.308271,508.793607 L910.609226,508.287499 C913.953781,502.555664 915.055991,496.966636 915.012925,492.00198 C915.002644,478.190114 903.804355,467 890,467 L889.586579,467.003349 C879.821256,467.161679 871.417015,472.919095 867.444247,481.205207 L867.289,481.535 L867.196958,481.602819 C852.905568,491.828783 825.092396,505.624828 789.352463,519.718613 C746.798239,536.499558 694.183691,553.53567 637.606134,568.66095 C507.721297,603.384002 372.061563,624.5 260,624.5 C212.732899,624.5 173.721249,619.727292 142.398632,610.84596 C115.750047,603.289921 95.3745556,592.973962 80.5337499,580.568857 C68.5238972,570.530086 60.4297926,559.431344 55.5420525,547.576972 L55.2093105,546.756344 C51.7188869,538.000836 50.1069968,529.18222 50.0069101,520.833398 L50.003,520.333 L49.9944474,520.614175 C51.1068142,480.014646 79.4978997,440.512685 127.74445,409.24442 C172.160898,380.458412 228.820266,362.5 272,362.5 L304.673661,362.499246 C318.226685,362.38156 329.217644,351.485863 329.453301,337.934376 C329.686602,324.518404 319.294505,313.337288 305.948075,312.543656 L305.41695,312.517324 L239.592,310.484 L238.801471,310.416574 L238.459631,310.384458 C236.713522,310.216858 234.71082,309.978553 232.560619,309.666426 C226.603364,308.801672 220.594784,307.527791 215.309009,305.881401 L214.795359,305.719318 C211.050924,304.52239 207.803126,303.14564 205.399619,301.804931 L205.221,301.703 L205.316125,301.602199 C205.758176,301.13589 206.231344,300.660746 206.734089,300.181063 C212.8174,294.376801 222.185112,287.855923 233.29431,281.951738 C259.606633,267.96757 291.547229,259.198621 321.963677,259.003331 L324.286863,258.994872 C331.408969,258.95714 336.860572,259.242864 342.416119,260.289164 C343.306943,260.456937 344.157402,260.640324 344.963278,260.838629 L345.476142,260.968799 C346.658291,261.278147 347.736711,261.62587 348.669515,261.992059 L348.851,262.066 L348.236125,263.462938 C347.907411,264.21869 347.557797,265.03999 347.287886,265.714766 C344.825366,271.86851 344.908551,278.75146 347.520202,284.846525 C350.131853,290.94159 355.057997,295.7494 361.21475,298.212107 C367.36851,300.674634 374.25146,300.591449 380.346525,297.979798 C386.303066,295.427502 391.030198,290.664723 393.540574,284.703109 L394.406853,282.617142 C397.623197,274.990246 399,269.009431 399,259 C399,245.370204 392.986155,233.129353 383.016124,224.763269 C375.674251,218.602544 367.045131,214.779937 356.911725,212.286372 C347.138741,209.881505 337.275842,209.01982 327.041317,208.97569 Z"></path>
                <path d="M459.696271,319.49842 L459.5,319.49842 C441.223929,319.49842 420.562157,327.659911 401.337249,340.696541 C392.648109,346.588737 385.073845,353.050839 379.29469,359.630184 C371.301448,368.730183 367,376.860071 367,387 C367,398.843299 374.027869,409.459704 384.157601,413.73671 C387.327754,415.075221 390.541979,415.854165 393.870394,416.22744 C395.925835,416.457953 397.442408,416.510647 399.847525,416.504491 L401,416.5 C410.442791,416.5 420.630042,414.14215 432.13291,409.798173 L432.976939,409.476782 C441.327273,406.271145 449.610178,402.389882 460.876418,396.616474 L463.349536,395.342171 L464.876,394.544 L464.956245,394.815861 C466.95182,401.35359 470.906772,407.055072 476.24999,411.062492 C482.524238,415.768186 489.977855,418 497.5,418 C505.568827,418 513.685677,415.874933 529.876371,410.398664 L530.807034,410.08264 C538.59303,407.428497 547.443807,404.157327 556.947906,400.446022 L558.866,399.694 L558.888947,399.577804 C557.174116,408.174715 561.248847,416.879716 568.942334,421.065902 C576.51746,425.187686 585.865512,423.984392 592.147417,418.120016 L592.985575,417.31657 C601.244103,409.458612 620.463348,394.811268 638.782298,382.55771 L640.261163,381.572346 C642.080782,380.364578 643.875774,379.190212 645.638468,378.054122 L647.002,377.179 L647,377 C647,386.324053 651.82439,394.705674 658.997822,399.83685 C663.665051,403.175332 668.631598,405.07178 674.580001,406.359585 L675.276947,406.506144 C678.720347,407.209152 682.265359,407.630797 685.857163,407.844787 C687.999073,407.972395 689.792829,408.012214 691.592471,408.006414 L692.5,408 L693.539184,407.995693 C707.051596,407.884089 721.76767,405.609938 736.866823,401.889438 L738.277,401.538 L738.431928,401.812725 C741.473759,407.133262 746.098602,411.389573 751.657601,413.73671 C754.827754,415.075221 758.041979,415.854165 761.370394,416.22744 C763.425835,416.457953 764.942408,416.510647 767.347525,416.504491 L768.5,416.5 C778.027294,416.5 788.271954,414.065583 799.822666,409.583284 L801.233456,409.028369 C808.818084,406.006984 816.383464,402.399077 826.276211,397.240066 L827.001,396.861 L827,397 C827,406.045068 830.598145,414.522492 836.787288,420.52737 C841.589684,425.186773 847.257407,428.093691 853.897574,430.010923 C854.840996,430.283321 855.798319,430.532883 856.769842,430.761232 C860.285514,431.587565 863.879302,432.118559 867.691211,432.454499 C869.107317,432.579299 870.49808,432.672667 872.001436,432.751145 L875.602335,432.919718 C875.789655,432.929736 875.933263,432.93852 876.040752,432.946381 L876.902752,433.00405 C889.103164,433.745469 906.883419,431.7189 932.538672,427.170022 L935.252011,426.68406 C956.669988,422.810345 981.884705,417.37264 1007.70307,411.126262 L1010.42134,410.466136 C1033.94575,404.73183 1056.5384,398.66715 1074.36224,393.304549 L1076.39746,392.688962 C1085.83594,389.818663 1093.60685,387.239449 1099.58422,384.972202 L1100.13934,384.760562 C1103.37039,383.522312 1106.02332,382.397044 1108.31513,381.26653 L1109.91107,380.480788 C1111.95389,379.470808 1113.55164,378.49777 1115.3277,376.968184 C1116.7175,375.771247 1117.96187,374.411033 1119.10115,372.864903 C1122.24717,368.59735 1123.56959,363.251394 1122.77545,358.006052 C1121.98132,352.760709 1119.13571,348.045782 1114.8648,344.898786 C1110.59739,341.752848 1105.25142,340.430419 1100.00607,341.224543 C1097.64959,341.581305 1095.78125,342.311998 1093.91821,343.315128 C1093.14652,343.730632 1092.49634,344.127566 1091.73023,344.629578 L1090.479,345.463 L1089.97991,345.697191 C1088.97415,346.156641 1087.53897,346.75272 1085.8255,347.40939 L1084.92212,347.751824 C1080.13481,349.547554 1073.5009,351.750111 1065.53394,354.184126 L1062.81163,355.009294 C1045.08921,360.340467 1022.07855,366.495131 998.296936,372.248737 L995.16642,373.002754 C970.148097,379.00174 945.796915,384.194067 925.555038,387.783096 L922.708419,388.28102 C902.488691,391.768947 886.242573,393.518487 879.201732,393.070194 L878.14138,392.997771 L873.671153,392.738082 C871.378898,392.599408 870.425422,392.514726 869.099847,392.346068 L868.204897,392.226434 L867.783466,392.163747 L867.538,392.124 L867.616644,391.722538 C867.806369,390.777271 868.039869,389.774582 868.317136,388.720184 C869.202294,385.354084 870.476962,381.646882 872.122167,377.523696 L872.610388,376.314071 C873.024356,375.299771 873.458605,374.263382 873.931793,373.156939 L875.591893,369.337904 L876.06,368.267 L876.246361,367.970315 C876.490651,367.568774 876.725116,367.147412 876.951416,366.694837 C878.482274,363.633122 879.358852,360.371614 879.845105,356.481634 C879.947371,355.668278 879.999548,354.838614 880,354.008115 C880,342.16129 872.715188,332.341884 861.830544,326.501345 C853.069295,321.800189 842.040748,319.49842 829,319.49842 C810.789271,319.49842 789.803941,327.603447 770.096147,340.523913 L769.220035,341.10249 C762.240919,345.745143 755.981227,350.721794 750.780046,355.81755 L750.395,356.197 L749.103546,356.631219 C747.957418,357.011706 746.71383,357.415459 745.380677,357.837526 C740.455047,359.396945 735.254732,360.901481 729.93131,362.265325 C716.107689,365.806892 703.403738,367.90536 693.192352,367.996877 L692.171708,368.00046 L691.189002,367.997594 L690.29,367.985 L690.565942,367.473224 C690.815631,367.018163 691.105147,366.512904 691.508959,365.8243 L692.800208,363.625919 C696.48947,357.264222 698.386664,352.260354 698.495072,345.609266 L698.500061,344.876874 L698.497005,344.067568 C698.492596,343.672254 698.482606,343.337446 698.461725,342.913173 C698.407943,341.820348 698.292501,340.743551 698.08621,339.621226 C697.556693,336.740385 696.48879,333.962024 694.811158,331.325755 C690.576298,324.67097 682.822053,321 675.5,321 C670.408315,321 665.510218,322.14216 660.195005,324.268809 L659.551847,324.529511 C656.240922,325.889227 653.067394,327.468999 647.731305,330.307621 L646.414464,331.011673 C643.754792,332.444613 640.953007,334.027041 638.030553,335.743666 L637.179,336.245 L637.070978,336.095313 C636.924323,335.897596 636.773489,335.701769 636.618465,335.507941 C629.717743,326.882022 617.133282,325.482972 608.507941,332.381535 L607.935734,332.846141 C606.788193,333.791479 605.621336,334.833687 604.425157,335.974969 L603.801,336.576 L603.274377,336.856382 C603.034051,336.982446 602.771084,337.118608 602.488594,337.263107 L601.585672,337.719856 C599.055861,338.98639 595.534221,340.65359 591.358348,342.559364 L590.203507,343.084913 C580.440445,347.515608 568.192069,352.776137 556.056172,357.727538 L552.678259,359.098878 C539.379022,364.470941 527.036312,369.133626 517.061131,372.507585 L516.207776,372.794333 C513.140652,373.818191 510.131961,374.74967 507.341009,375.546859 L506.406,375.81 L507.546013,373.09305 L507.959106,372.077323 C508.28669,371.259043 508.575657,370.502246 508.848768,369.740042 C509.661954,367.470585 510.270715,365.317709 510.677969,363.077812 C511.738494,357.24164 510.154809,351.237272 506.354787,346.684487 L506.086729,346.369976 C505.45444,345.643434 504.774738,344.96824 504.054174,344.34746 L503.942,344.253 L503.885541,344.046854 C502.261688,338.349991 498.946697,333.269161 494.493839,329.502649 C490.095034,325.781846 485.214288,323.485572 479.505366,321.901429 L478.612215,321.661148 C474.781957,320.663613 470.847231,320.063006 466.838355,319.751665 C464.205292,319.547174 462.224615,319.496864 459.696271,319.49842 Z"></path>
                <path d="M1945.2012,201.14258 L1945.012,201.59828 C1944.79245,202.109724 1944.47482,202.777857 1943.9961,203.50781 L1943.6336,204.049044 C1942.36506,205.906704 1940.49775,208.294452 1938.13709,211.05063 L1937.02501,212.334742 C1931.51015,218.637206 1923.65967,226.69664 1914.1797,235.82812 C1902.9344,246.65997 1889.1146,259.11043 1874.332,272.02148 L1876.17906,269.422648 C1882.63553,260.369466 1889.00061,251.781874 1895.1191,244.19336 C1906.1122,230.55919 1916.4345,219.49415 1925.3418,212.01172 C1933.773,204.9292 1940.9099,201.50076 1945.2012,201.14258 Z"></path>
                <path d="M1829.5059,322.59375 C1825.7831,328.76403 1822.0651,334.95184 1818.4004,341.29492 C1814.4947,340.48995 1811.3407,339.67066 1808.8457,338.79102 C1815.7143,333.51 1822.5921,328.12342 1829.5059,322.59375 Z"></path>
                <path d="M2206.9492,330.5 C2211.6326,330.5 2216.2593,331.39118 2219.1562,333.11133 C2222.0532,334.83147 2223.6094,336.74067 2223.6094,341.5 C2223.6094,344.24874 2222.6539,346.39445 2220.2891,348.73633 C2217.9242,351.0782 2214.0478,353.37118 2208.9102,355.23828 C2198.6348,358.97247 2183.513,361 2166.4297,361 C2159.7631,361 2153.8546,360.52378 2148.3535,359.8125 C2150.5874,357.59355 2152.9088,355.41324 2155.3965,353.34375 C2171.4115,340.02089 2191.8062,330.5 2206.9492,330.5 Z"></path>
                <path d="M473.46484,345.89453 C475.96822,346.56032 478.13322,347.5629 479.34961,348.5918 C480.56599,349.62069 481,350.30833 481,352 C481,354.357143 480.494898,355.34727 480.124268,355.846076 L479.855868,356.178194 C479.797128,356.256492 479.789566,356.285559 479.79883,356.29688 C477.955067,356.963913 476.671335,358.64704 476.51562,360.60156 L476.00977,360.84961 L474.54247,361.619346 C468.081653,365.023662 460.309327,369.299428 452.05273,373.55469 L450.793112,374.200895 C433.310729,383.128192 413.520029,391.5 402,391.5 L401.279748,391.495675 C398.752663,391.464841 396.200432,391.263357 394.88281,390.70703 L394.150664,390.408173 C393.28533,390.031052 393,389.62512 393,387 C393,385.29167 394.89115,380.89144 399.07617,376.12695 C403.26119,371.36247 409.37442,366.13188 416.36914,361.38867 C430.155844,352.039744 447.578881,344.714996 459.957198,344.504648 L460.5,344.5 C462.5,344.5 468.45809,344.56295 473.46484,345.89453 Z"></path>
                <path d="M830,344.5 C839.90476,344.5 846.90287,346.3265 851.01172,348.53125 C854.98965,350.66575 855.88284,352.7058 855.93945,353.85156 L855.89062,354.08789 C854.73879,354.46599 853.63454,354.98284 852.32422,355.56836 C849.78977,356.70087 846.82897,358.22545 843.46094,360.03125 L841.242214,361.229271 C835.186156,364.519305 828.041471,368.541789 820.456259,372.575818 L818.261022,373.735971 C800.775899,382.906238 780.965121,391.5 769.5,391.5 L768.779748,391.495675 C766.252663,391.464841 763.700432,391.263357 762.38281,390.70703 L761.650664,390.408173 C760.78533,390.031052 760.5,389.62512 760.5,387 C760.5,385.39583 762.4573,380.97665 766.82227,376.20312 C771.18723,371.42962 777.55403,366.18518 784.80469,361.43164 C799.306,351.92456 817.59211,344.5 830,344.5 Z"></path>
                <path d="M1806.3672,348.91797 C1808.4093,349.58168 1810.8326,350.04456 1813.1699,350.51367 C1811.3809,353.67501 1809.6421,356.87597 1807.877,360.0625 C1807.1444,355.83155 1806.5984,351.94416 1806.3672,348.91797 Z"></path>
                <path d="M1803.7285,388.78711 L1804.09218,390.42916 C1804.61576,392.827532 1805.05563,394.982133 1805.61532,397.532706 L1806.52536,401.646709 C1811.86996,425.943993 1816.98901,452.683622 1816.05374,472.337627 L1816.00184,473.356389 L1816,473.5 C1816,505.47727 1806.1105,536.39927 1793.3906,559.05273 C1787.0307,570.37947 1779.9552,579.63283 1773.2891,585.86328 C1766.6229,592.09373 1760.3993,595 1756.5,595 L1756.35394,594.996101 C1755.12281,594.936107 1750.89199,594.150185 1747.2266,590.34375 C1743.3982,586.36814 1739.5,578.85053 1739.5,564 C1739.5,543.38159 1749.2388,509.43634 1764.9336,471.05664 C1775.5823,445.01643 1789.0342,416.81727 1803.7285,388.78711 Z M1797.733,434.21858 L1797.18263,435.374718 C1790.32516,449.802864 1784.15889,463.672658 1778.81756,476.734278 C1763.29456,514.69387 1754.5,546.421289 1754.5,564 C1754.5,569.370783 1755.10633,573.441647 1756.11489,576.37941 C1756.50383,577.512354 1756.90501,578.359787 1757.30761,578.998466 L1757.43,579.18658 L1757.53951,579.126239 C1759.06059,578.245845 1760.80956,576.948356 1762.65074,575.27008 L1763.04664,574.904634 C1768.67959,569.639813 1774.81386,561.499624 1780.31138,551.708757 C1792.91425,529.263718 1800.81261,501.223645 1800.99673,474.478068 L1801.00002,473.523431 C1800.99962,473.268095 1801.00411,473.012786 1801.01387,472.750871 L1801.08958,471.22539 C1801.49746,461.941053 1800.48035,450.632641 1798.04533,436.062383 L1797.733,434.21858 Z"></path>
            </g>
            <path d="M589.5,637.5 C567.21032,637.5 541.47771,643.9486 520.95117,650.76953 C510.68791,654.18 501.77243,657.69266 495.26172,660.6543 C492.00636,662.13512 489.37206,663.45884 487.31055,664.6875 C486.27979,665.30183 485.40641,665.86119 484.49414,666.62891 C484.03801,667.01276 483.56322,667.43281 482.99609,668.17969 C482.42897,668.92656 481.5,670.08854 481.5,672.5 C481.5,676.089851 484.410149,679 488,679 C490.082885,678.999565 493.53368,676.11166 493.9668,675.85352 C495.32325,675.04507 497.66551,673.84145 500.64453,672.48633 C506.60257,669.77609 515.18709,666.3825 525.04883,663.10547 C544.77229,656.5514 569.46772,650.76953 589.17804,650.76953 C590.46971,650.76953 593.068327,652.770343 594.781829,652.960813 C596.495331,653.151283 598.21431,652.653205 599.56055,651.57617 C600.906932,650.499312 601.770343,648.931673 601.960813,647.218171 C602.151283,645.504669 601.653205,643.78569 600.57617,642.43945 C600.57617,642.43945 596.20833,637.5 589.5,637.5 Z" fill="#38D1C4" fill-rule="nonzero"></path>
            <path d="M1796.5,251 C1789,251 1781.0348,255.25411 1773.2305,259.80664 C1769.3283,262.08291 1765.6446,264.50459 1762.6055,266.73438 C1759.5664,268.96415 1757.294,270.75403 1755.5957,272.87695 C1753.87107,275.033298 1754.22086,278.179416 1756.377,279.9043 C1758.53333,281.628907 1761.6794,281.279146 1763.4043,279.12305 C1763.706,278.74597 1765.8086,276.78585 1768.5195,274.79688 C1771.2304,272.8079 1774.6717,270.54209 1778.2695,268.44336 C1785.4652,264.24589 1794,261 1796.5,261 C1797.0417,261 1797.306,261.16935 1797.6211,261.50195 C1797.7962,261.68674 1797.8893,261.93189 1797.9414,262.05664 C1797.7086,262.62154 1796.7111,266.07014 1794.5391,270.26367 C1792.0239,275.11948 1788.2252,281.6124 1783.3633,289.48828 C1773.6394,305.24005 1759.659,326.56894 1742.873,352.34961 C1713.6526,397.2278 1675.9155,455.63525 1637.0605,522.08594 C1630.0379,524.31796 1622.9672,526.55597 1615.8711,528.79297 C1559.6768,546.50773 1501.9209,564.09431 1453.793,577.37109 C1480.0456,530.81825 1505.1618,491.45926 1510.2656,483.10742 C1511.70529,480.751529 1510.96295,477.674624 1508.6074,476.23438 C1507.79981,475.740274 1506.86854,475.485607 1505.9219,475.5 C1504.20826,475.527143 1502.62793,476.430086 1501.7344,477.89258 C1496.6799,486.16342 1468.4037,530.45414 1440.2793,581.0332 C1397.1778,592.5789 1362.8969,600 1349,600 C1342.0948,600 1338.5696,599.24472 1337.1836,598.76953 C1336.6058,598.57144 1332.72618,596.545826 1330.7637,597.52734 C1329.57735,598.120321 1328.67521,599.160356 1328.25579,600.418583 C1327.83636,601.676809 1327.93403,603.050125 1328.5273,604.23633 C1328.5273,604.23633 1328.9565,604.98245 1329.2734,605.35742 C1329.5904,605.73239 1329.9736,606.09563 1330.4199,606.4375 C1331.3126,607.12124 1332.4469,607.71806 1333.9414,608.23047 C1336.9304,609.25528 1341.4052,610 1349,610 C1364.8711,610 1394.9332,603.41205 1433.5977,593.1875 C1419.7037,618.73095 1406.2581,645.29921 1396.0645,669.45508 C1385.2852,694.9986 1378,717.60738 1378,734.5 C1378,738.31061 1379.3428,741.36071 1380.8906,743.24023 C1382.4385,745.11976 1384.5312,746.0957 1384.5312,746.0957 C1387.06935,747.182831 1390.00824,746.00676 1391.0957,743.46875 C1392.15064,741.004452 1388.72671,737.090537 1388.6094,736.88477 C1388.49209,736.679003 1388.17604,736.283957 1388,734.5 C1386.53277,720.87876 1394.7148,698.3764 1405.2793,673.3418 C1415.8438,648.3072 1430.1224,620.28166 1444.7598,593.5918 C1445.4956,592.25001 1446.2336,590.92991 1446.9707,589.5957 C1449.466,588.91796 1451.8647,588.28058 1454.4199,587.57812 C1503.1515,574.18164 1561.8469,556.31088 1618.8789,538.33203 C1622.4677,537.20071 1626.0211,536.07053 1629.5938,534.93945 C1626.2826,540.67152 1622.9683,546.44131 1619.6523,552.28125 C1529.982,710.2063 1440,906.21891 1440,1075.5 C1440,1102.3373 1444.7363,1122.5463 1449.5371,1136.1055 C1454.338,1149.6646 1459.4258,1156.8984 1459.4258,1156.8984 C1461.02655,1159.14851 1464.14828,1159.67493 1466.3984,1158.0742 C1468.64851,1156.47345 1469.17493,1153.35172 1467.5742,1151.1016 C1467.5742,1151.1016 1463.412,1145.3354 1458.9629,1132.7695 C1454.5137,1120.2037 1450,1101.1627 1450,1075.5 C1450,909.78109 1539.018,714.5437 1628.3477,557.21875 C1633.4916,548.15935 1638.6342,539.24157 1643.7617,530.44531 C1691.8113,515.15268 1737.4225,500.24644 1773.2793,488.46094 C1794.2831,481.55734 1811.9492,475.72239 1824.8066,471.50781 C1831.2354,469.40052 1836.4633,467.69766 1840.293,466.47266 C1844.1227,465.24766 1846.8196,464.44683 1847.1738,464.36133 C1848.46325,464.050259 1849.57626,463.239565 1850.26784,462.107681 C1850.95942,460.975797 1851.17291,459.615492 1850.8613,458.32617 C1850.32706,456.112623 1848.36466,454.539641 1846.0879,454.5 C1845.66315,454.492436 1845.23917,454.539035 1844.8262,454.63867 C1843.3679,454.99067 1841.1234,455.70962 1837.248,456.94922 C1833.3727,458.18882 1828.1318,459.89538 1821.6934,462.00586 C1808.8164,466.22683 1791.1544,472.05985 1770.1582,478.96094 C1736.9692,489.8696 1695.411,503.45238 1651.3359,517.53125 C1688.0511,455.2913 1723.4701,400.47524 1751.252,357.80664 C1768.0285,332.04043 1782.0168,310.70526 1791.8711,294.74219 C1796.7982,286.76065 1800.6909,280.13199 1803.4199,274.86328 C1806.1489,269.59458 1808,266.34341 1808,262 C1808,259.08333 1806.8138,256.66544 1804.8789,254.62305 C1802.944,252.58065 1799.9583,251 1796.5,251 Z M2053,422 C2044.3012,422 2035.6103,427.20509 2025.9102,435.35352 C2016.21,443.50194 2005.5831,454.96424 1994.334,468.91602 C1981.1403,485.27954 1967.1175,505.30481 1953.0703,527.07031 C1950.6426,529.08999 1948.4647,531.05998 1946.0137,533.07422 C1917.6978,556.34372 1888.0493,579.03739 1862.9766,595.82227 C1850.4402,604.2147 1839.0374,611.13045 1829.6289,615.87305 C1820.2204,620.61565 1812.5723,623 1809,623 C1808.0833,623 1806.2322,622.79021 1805.1895,622.22656 C1804.1467,621.66291 1803.5,621.51852 1803.5,618.5 C1803.5,617.66009 1804.19,615.0373 1805.9668,611.70312 C1807.7436,608.36896 1810.4566,604.25355 1813.8418,599.64844 C1819.7249,591.64525 1827.8049,581.9871 1836.4941,571.76758 C1837.8702,570.41423 1839.0349,569.03039 1839.9688,567.64453 C1840.047,567.55281 1840.1492,567.41479 1840.2754,567.23047 C1840.4494,566.95582 1840.7135,566.71132 1840.8711,566.42773 C1842.11846,564.182325 1841.46174,561.357078 1839.35191,559.892037 C1837.24207,558.426997 1834.36542,558.798719 1832.6973,560.75195 C1831.5411,562.10556 1830.5341,563.33195 1829.3984,564.66602 C1828.6955,565.38832 1828.0559,566.07817 1827.1191,566.91211 C1824.2868,569.43373 1820.4608,572.45488 1815.9531,575.72656 C1806.9378,582.26992 1795.181,589.839 1782.7598,596.97656 C1770.3386,604.11412 1757.233,610.83043 1745.5566,615.70703 C1733.8803,620.58364 1723.4343,623.5 1717.5,623.5 C1716.4643,623.5 1713.4785,623.12029 1711.5566,622.2207 C1709.6348,621.32112 1709,620.91667 1709,619 C1709,617.91667 1709.9156,614.84788 1712.0156,611.16211 C1714.1157,607.47634 1717.217,603.08801 1720.8242,598.44141 C1728.0387,589.14819 1737.2573,578.80262 1744.8418,569.70117 C1745.69098,568.682339 1746.10057,567.367855 1745.98043,566.046987 C1745.86029,564.726118 1745.22026,563.507102 1744.2012,562.6582 C1743.18236,561.809011 1741.86787,561.399421 1740.54699,561.519568 C1739.22612,561.639715 1738.0071,562.279752 1737.1582,563.29883 C1729.7427,572.19738 1720.4613,582.60181 1712.9258,592.30859 C1709.158,597.16199 1705.8218,601.83616 1703.3281,606.21289 C1700.8344,610.58962 1699,614.58333 1699,619 C1699,625.08333 1703.3652,629.42888 1707.3184,631.2793 C1711.2715,633.12971 1715.0357,633.5 1717.5,633.5 C1726.3157,633.5 1737.1822,630.04136 1749.4121,624.93359 C1761.642,619.82582 1775.0364,612.94838 1787.7402,605.64844 C1793.5969,602.28306 1799.2327,598.8303 1804.6016,595.41797 C1801.6148,599.57272 1799.0262,603.46536 1797.1426,607 C1794.9975,611.0252 1793.5,614.58991 1793.5,618.5 C1793.5,624.48148 1796.8533,629.08709 1800.4355,631.02344 C1804.0178,632.95979 1807.4167,633 1809,633 C1816.0527,633 1824.1389,629.83748 1834.1309,624.80078 C1844.1228,619.76408 1855.7864,612.66811 1868.5391,604.13086 C1879.4093,596.8538 1891.1451,588.38569 1903.1465,579.41602 C1903.3957,583.83827 1904.2002,588.80988 1905.2969,594.67578 C1905.8264,597.50838 1906.7648,601.38817 1907.4238,604.50977 C1890.379,636.23285 1874.8304,668.54882 1862.6758,698.27148 C1846.7612,737.18866 1836.5,771.36841 1836.5,795 C1836.5,811.64947 1841.1018,822.13186 1847.0234,828.28125 C1852.9451,834.43064 1859.5,836 1863.5,836 C1871.6007,836 1879.4396,831.34377 1887.1172,824.16797 C1894.7948,816.99217 1902.3443,806.99553 1909.1094,794.94727 C1922.6215,770.88278 1932.9666,738.60772 1932.9941,704.63477 C1934.2758,681.75872 1928.2584,652.8006 1922.5684,627.22656 C1920.8144,619.34326 1919.4819,612.95977 1917.9902,606.07227 C1922.1258,598.4305 1926.3236,590.82486 1930.6035,583.31445 C1938.0765,584.34273 1945.7862,585 1952,585 C1965.5333,585 1986.1544,581.02759 2004.7539,575.94922 C2009.2026,574.73456 2013.5028,573.45252 2017.5586,572.13867 C2015.3382,574.43258 2013.1256,576.71245 2010.8359,579.11328 C2004.1933,586.07854 1997.5472,593.21901 1992.4883,599.05664 C1989.9588,601.97546 1987.832,604.55632 1986.2402,606.72852 C1985.4443,607.81462 1984.7837,608.78684 1984.2324,609.77148 C1983.6811,610.75613 1983,611.46117 1983,613.78711 C1983,616.10146 1982.9537,618.56329 1984.75,621.17773 C1986.5463,623.79218 1989.974,624.86719 1992.8691,624.86719 C1996.3793,624.86719 1999.8445,623.76537 2004.1738,622.12891 C2008.5031,620.49245 2013.5131,618.2159 2019.0215,615.47656 C2030.0382,609.99789 2043.0202,602.66741 2055.7598,595.02148 C2065.4543,589.20308 2074.6299,583.36749 2083.0254,577.87695 C2079.7459,582.6391 2076.6179,587.35179 2073.8965,591.79688 C2069.9077,598.31209 2066.6122,604.29378 2064.2578,609.30078 C2061.9035,614.30778 2060.2793,617.79046 2060.2793,621.89258 C2060.2793,627.12424 2063.6643,630.90033 2066.4492,632.65039 C2069.2342,634.40045 2071.9668,634.9043 2071.9668,634.9043 C2072.28713,634.967887 2072.61292,634.99994 2072.9395,635 C2095.1702,635 2124.4979,618.32845 2149.5273,600.17188 C2162.0421,591.09357 2173.3052,581.56232 2181.5898,573.1875 C2185.5901,569.14379 2188.8753,565.39121 2191.3379,561.94922 C2191.63,562.46067 2191.89,562.93494 2192.2031,563.4668 C2195.084,568.36066 2199.2534,574.35439 2205.5156,580.11719 C2212.7282,586.75453 2222.8379,592.93339 2236.5996,597.04102 C2229.6089,606.65598 2225.1191,616.88252 2225.1191,627 C2225.1191,638.2225 2229.5118,646.84802 2236.0586,652.13867 C2242.6054,657.42933 2250.88,659.5 2258.7598,659.5 C2279.1039,659.5 2298.0475,647.41784 2352.3672,635.63672 C2406.6868,623.8556 2496.1843,612 2654.5898,612 C2729.4846,612 2811.8616,619.00385 2875.0996,633.25195 C2906.7186,640.37601 2933.5614,649.35717 2952.0547,659.86328 C2970.548,670.36939 2980,681.79237 2980,694 C2980,700.42292 2977.3574,704.54569 2972.3438,707.81055 C2967.3301,711.07541 2959.723,713 2951,713 C2942.277,713 2935.7166,711.15959 2931.3711,709.375 C2927.0256,707.59041 2925.2031,706.08789 2925.2031,706.08789 C2923.04245,704.368632 2919.8972,704.726266 2918.1777,706.88672 C2916.45846,709.047385 2916.81613,712.19263 2918.9766,713.91211 C2918.9766,713.91211 2922.1777,716.40959 2927.5723,718.625 C2932.9668,720.84041 2940.863,723 2951,723 C2961.137,723 2970.5294,720.92459 2977.8008,716.18945 C2985.0722,711.45431 2990,703.57708 2990,694 C2990,676.70763 2976.9511,662.50561 2956.9941,651.16797 C2937.0371,639.83033 2909.4791,630.74899 2877.2969,623.49805 C2812.9324,608.99615 2730.1051,602 2654.5898,602 C2495.6854,602 2405.4334,613.8944 2350.248,625.86328 C2295.0627,637.83216 2274.7457,649.5 2258.7598,649.5 C2252.6695,649.5 2246.6244,647.82067 2242.3438,644.36133 C2238.063,640.90198 2235.1191,635.7775 2235.1191,627 C2235.1191,619.12351 2239.8206,609.24805 2247.4082,599.6543 C2255.1075,601.10348 2263.6687,602 2273.4297,602 C2291.2764,602 2307.244,600.02753 2319.3262,595.63672 C2325.3672,593.44132 2330.4882,590.64055 2334.3242,586.8418 C2338.1603,583.04305 2340.6094,578.00126 2340.6094,572.5 C2340.6094,564.75933 2336.5768,558.66853 2331.2637,555.51367 C2325.9506,552.35882 2319.7458,551.5 2313.9492,551.5 C2294.8623,551.5 2273.3444,562.22911 2256.002,576.65625 C2251.4688,580.42734 2247.2203,584.46252 2243.3809,588.66992 C2228.8469,585.0736 2219.0914,579.01947 2212.2871,572.75781 C2206.9356,567.83311 2203.3754,562.73309 2200.8203,558.39258 C2198.3308,554.16349 2197.216,551.04334 2195.1543,548.21875 C2195.11883,548.165976 2195.08236,548.113883 2195.0449,548.0625 C2195.03392,548.047465 2195.02285,548.032491 2195.0117,548.01758 C2195.006,548.00999 2195.0018,548.00173 2194.9961,547.99414 C2194.97363,547.96459 2194.95083,547.935292 2194.9277,547.90625 C2194.918,547.893182 2194.90823,547.880162 2194.8984,547.86719 C2194.89259,547.860011 2194.88675,547.852847 2194.8809,547.8457 C2194.84701,547.804789 2194.81247,547.76442 2194.7773,547.72461 C2194.77149,547.717431 2194.76565,547.710267 2194.7598,547.70312 C2194.72398,547.662819 2194.68751,547.623101 2194.6504,547.58398 C2194.60761,547.538244 2194.56397,547.493316 2194.5195,547.44922 C2194.51302,547.442692 2194.50652,547.436182 2194.5,547.42969 C2194.46218,547.392622 2194.42378,547.356158 2194.3848,547.32031 C2194.37765,547.313779 2194.37049,547.307269 2194.3633,547.30078 C2194.32413,547.264993 2194.28439,547.229832 2194.2441,547.19531 C2194.19605,547.154679 2194.14725,547.114959 2194.0977,547.07617 C2194.09055,547.07029 2194.08338,547.06443 2194.0762,547.05859 C2194.06321,547.048763 2194.05018,547.039 2194.0371,547.0293 C2194.00039,547.000787 2193.96329,546.972788 2193.9258,546.94531 C2193.88266,546.914018 2193.83902,546.883417 2193.7949,546.85352 C2193.78711,546.848288 2193.77931,546.843078 2193.7715,546.83789 C2193.72703,546.808527 2193.68209,546.779876 2193.6367,546.75195 C2193.53033,546.686043 2193.42152,546.624153 2193.3105,546.56641 C2193.30208,546.561826 2193.29365,546.557266 2193.2852,546.55273 C2193.18212,546.499621 2193.07722,546.450115 2192.9707,546.4043 C2192.9312,546.388166 2192.8915,546.372538 2192.8516,546.35742 C2192.83341,546.349498 2192.81518,546.341685 2192.7969,546.33398 C2192.78778,546.3307 2192.77864,546.327447 2192.7695,546.32422 C2192.75715,546.319614 2192.74478,546.315058 2192.7324,546.31055 C2192.6948,546.296422 2192.65703,546.282748 2192.6191,546.26953 C2192.50072,546.229243 2192.38087,546.193411 2192.2598,546.16211 C2192.25067,546.159481 2192.24154,546.156877 2192.2324,546.1543 C2192.18054,546.141095 2192.12846,546.128723 2192.0762,546.11719 C2192.06707,546.115211 2192.05794,546.113258 2192.0488,546.11133 C2191.9969,546.100085 2191.94483,546.089667 2191.8926,546.08008 C2191.76894,546.057818 2191.64449,546.040226 2191.5195,546.02734 C2191.39486,546.01418 2191.26977,546.00571 2191.1445,546.00195 C2191.09635,546.000604 2191.04817,545.999954 2191,546 C2190.9759,545.999826 2190.9518,545.999826 2190.9277,546 C2190.88929,546.000861 2190.85088,546.002164 2190.8125,546.00391 C2190.75906,546.005657 2190.70565,546.00826 2190.6523,546.01172 C2190.63409,546.01292 2190.61589,546.01422 2190.5977,546.01562 C2190.55334,546.019588 2190.50904,546.024148 2190.4648,546.0293 C2190.45243,546.030554 2190.44006,546.031854 2190.4277,546.0332 C2190.36833,546.039951 2190.30909,546.047766 2190.25,546.05664 C2190.19384,546.065451 2190.13783,546.075219 2190.082,546.08594 C2190.07093,546.087856 2190.05986,546.089809 2190.0488,546.0918 C2189.99264,546.102556 2189.93666,546.114274 2189.8809,546.12695 C2189.82991,546.138522 2189.7791,546.150894 2189.7285,546.16406 C2189.70894,546.169151 2189.6894,546.174362 2189.6699,546.17969 C2189.63529,546.189733 2189.60079,546.200151 2189.5664,546.21094 C2189.54094,546.218551 2189.51554,546.226364 2189.4902,546.23438 C2189.46081,546.243872 2189.43151,546.253635 2189.4023,546.26367 C2189.36441,546.276238 2189.32668,546.289259 2189.2891,546.30273 C2189.28323,546.304672 2189.27736,546.306626 2189.2715,546.30859 C2189.23554,546.321851 2189.19974,546.335526 2189.1641,546.34961 C2189.10568,546.372606 2189.04771,546.3967 2188.9902,546.42188 C2188.968,546.431483 2188.94586,546.441246 2188.9238,546.45117 C2188.88911,546.467051 2188.85461,546.483329 2188.8203,546.5 C2188.76376,546.527587 2188.70775,546.556239 2188.6523,546.58594 C2188.59706,546.615506 2188.54239,546.646109 2188.4883,546.67773 C2188.43366,546.709258 2188.37961,546.741817 2188.3262,546.77539 C2188.27547,546.807686 2188.22533,546.840895 2188.1758,546.875 C2188.17059,546.878897 2188.16539,546.882803 2188.1602,546.88672 C2188.14383,546.89769 2188.12753,546.908757 2188.1113,546.91992 C2188.0798,546.942344 2188.04857,546.965132 2188.0176,546.98828 C2188.00975,546.993468 2188.00192,546.998678 2187.9941,547.00391 C2187.96455,547.02637 2187.93525,547.049158 2187.9062,547.07227 C2187.88922,547.085182 2187.87232,547.098202 2187.8555,547.11133 C2187.85223,547.113929 2187.84896,547.116533 2187.8457,547.11914 C2187.80479,547.153001 2187.76441,547.187512 2187.7246,547.22266 C2187.71742,547.228497 2187.71025,547.234353 2187.7031,547.24023 C2187.66281,547.276046 2187.62311,547.31251 2187.584,547.34961 C2187.53825,547.392382 2187.49331,547.43601 2187.4492,547.48047 C2187.42286,547.507518 2187.39682,547.534863 2187.3711,547.5625 C2187.35007,547.584446 2187.32923,547.606584 2187.3086,547.62891 C2187.306,547.63151 2187.3034,547.634114 2187.3008,547.63672 C2187.265,547.675871 2187.22983,547.71559 2187.1953,547.75586 C2187.15468,547.803933 2187.11497,547.852768 2187.0762,547.90234 C2187.06041,547.922403 2187.04478,547.942587 2187.0293,547.96289 C2187.00078,547.999608 2186.97278,548.036721 2186.9453,548.07422 C2186.91126,548.12181 2186.87805,548.169994 2186.8457,548.21875 C2186.8431,548.222003 2186.8405,548.22526 2186.8379,548.22852 C2186.80855,548.27298 2186.77991,548.317905 2186.752,548.36328 C2186.68607,548.469642 2186.62416,548.578442 2186.5664,548.68945 C2186.56181,548.6979 2186.55724,548.706364 2186.5527,548.71484 C2186.4996,548.817908 2186.45011,548.922791 2186.4043,549.0293 C2186.38816,549.068812 2186.37252,549.108528 2186.3574,549.14844 C2186.34949,549.16662 2186.34169,549.184847 2186.334,549.20312 C2186.33071,549.212227 2186.32744,549.221344 2186.3242,549.23047 C2186.30517,549.280305 2186.28693,549.330441 2186.2695,549.38086 C2186.22922,549.499265 2186.19339,549.619139 2186.1621,549.74023 C2186.15043,549.78435 2186.13936,549.828627 2186.1289,549.87305 C2186.12354,549.8958 2186.11834,549.918587 2186.1133,549.94141 C2186.11263,549.944663 2186.11196,549.947916 2186.1113,549.95117 C2186.10007,550.003084 2186.08967,550.055174 2186.0801,550.10742 C2186.05782,550.231062 2186.04021,550.355501 2186.0273,550.48047 C2186.01417,550.605109 2186.00573,550.730197 2186.002,550.85547 C2186.00064,550.903635 2185.99997,550.951816 2186,551 C2186.002,551.109141 2185.4241,552.99595 2183.4355,555.82617 C2181.447,558.6564 2178.3621,562.23428 2174.4824,566.15625 C2166.723,574.00018 2155.7828,583.28143 2143.6562,592.07812 C2119.671,609.47734 2090.3996,624.60634 2073.5449,624.93945 C2073.2604,624.86303 2072.6348,624.72733 2071.7695,624.18359 C2070.7245,623.5269 2070.2793,623.24792 2070.2793,621.89258 C2070.2793,621.691798 2071.1791,618.07928 2073.3066,613.55469 C2075.4342,609.03009 2078.5801,603.29574 2082.4238,597.01758 C2090.1112,584.46126 2100.6116,569.68756 2111.5039,557.30273 C2113.29201,555.260663 2113.12457,552.165003 2111.12662,550.327725 C2109.12867,548.490448 2106.02985,548.582512 2104.1445,550.53516 C2102.7214,552.01576 2095.1221,557.82921 2085.3438,564.41992 C2075.5653,571.01063 2063.2,578.89111 2050.6133,586.44531 C2038.0266,593.99951 2025.2019,601.23533 2014.5684,606.52344 C2009.2516,609.16749 2004.4756,611.32432 2000.6367,612.77539 C1996.9511,614.16853 1994.0683,614.77877 1993.0898,614.82812 C1993.0776,614.72964 1993.0712,614.61926 1993.0605,614.5 C1993.3024,614.08504 1993.706,613.45827 1994.3066,612.63867 C1995.6084,610.86232 1997.6141,608.41046 2000.0449,605.60547 C2004.9066,599.99548 2011.4893,592.91841 2018.0742,586.01367 C2029.4742,574.06003 2039.3597,564.15546 2042.2227,561.29297 C2043.2792,560.48689 2044.2208,559.57964 2045.0527,558.42773 C2046.66942,556.189417 2046.16577,553.064329 2043.9277,551.44727 C2042.77338,550.613655 2041.3184,550.311719 2039.9277,550.61719 C2038.96358,550.81005 2038.07771,551.282885 2037.3809,551.97656 C2037.3809,551.97656 2036.1997,553.16584 2036.0312,553.33398 C2035.5024,553.74511 2034.7729,554.26987 2033.8496,554.79883 C2031.9021,555.91462 2029.195,557.18926 2025.9863,558.49219 C2019.569,561.09805 2011.1338,563.83997 2002.1211,566.30078 C1984.0956,571.22241 1963.4667,575 1952,575 C1947.4754,575 1941.7914,574.54984 1936.0664,573.91406 C1944.1851,559.97344 1952.4336,546.55828 1960.7031,533.70508 C1986.0034,512.61321 2010.0505,491.43379 2028.1172,474.03125 C2038.1728,464.34528 2046.4623,455.82503 2052.3516,449 C2055.2962,445.58748 2057.639,442.61223 2059.3574,439.99219 C2061.0758,437.37215 2062.5,435.47607 2062.5,432 C2062.5,428.63889 2061.0122,425.42587 2058.7695,423.78125 C2056.5269,422.13663 2054.3056,422 2053,422 Z M2052.2012,432.14258 C2051.9863,432.67117 2051.6344,433.53454 2050.9961,434.50781 C2049.6762,436.52034 2047.5505,439.25529 2044.7793,442.4668 C2039.2369,448.88981 2031.1006,457.27192 2021.1797,466.82812 C2009.9344,477.65997 1996.1146,490.11043 1981.332,503.02148 C1988.4209,493.01426 1995.4179,483.50459 2002.1191,475.19336 C2013.1122,461.55919 2023.4345,450.49415 2032.3418,443.01172 C2040.773,435.9292 2047.9099,432.50076 2052.2012,432.14258 Z M434.95508,459.975504 C433.09234,459.975504 431.71634,460 431,460 C391.73693,460 354.68903,471.85835 327.2168,486.45898 C313.48068,493.7593 302.13899,501.73515 294.02539,509.47656 C285.9118,517.21797 280.5,524.5119 280.5,532.5 C280.5,541.68056 285.3603,549.13693 291.82617,554.35938 C298.29204,559.58181 306.40328,563.03618 314.38867,565.52344 C320.04154,567.28417 325.38434,568.40668 330.30078,569.29688 C293.23402,577.15056 253.76511,592.81454 219.42773,615.06836 C169.02064,647.73686 129.50893,694.60841 128,750.86523 C128,750.910143 128,750.95507 128,751 C128,772.125 135.314,806.18367 169.29297,834.58594 C203.27194,862.9882 263.28285,885.5 368,885.5 C493.17269,885.5 634.96764,860.29153 753.35352,828.64258 C812.54645,812.8181 865.87243,795.38256 908.35742,778.62891 C950.84146,761.87563 982.32636,746.05229 998.70898,732.33398 C1003.2568,728.52655 1003.00264,723 1003.00264,723 C1003.00264,720.238576 1000.76142,718 998,718 C995.238576,718 993,720.238576 993,723 C993,723 992.7432,724.28745 992.29102,724.66602 C977.92137,736.6975 946.72009,752.74974 904.68945,769.32422 C862.65882,785.89869 809.64105,803.2444 750.77148,818.98242 C633.03236,850.45847 491.82731,875.5 368,875.5 C264.71715,875.5 207.22806,853.2618 175.70703,826.91406 C144.22041,800.59509 138.01547,769.94655 138.00195,751.06641 C139.41776,699.39171 176.14394,655.03815 224.86719,623.46094 C273.61209,591.86969 334.06462,573.5 380,573.5 L412.5,573.5 C415.210822,573.476461 417.409189,571.297147 417.456325,568.586633 C417.50346,565.876119 415.382194,563.621688 412.67383,563.50391 C412.67383,563.50391 390.619793,562.82292 346.51172,561.46094 C346.05391,561.42727 345.38745,561.37346 344.54883,561.29297 C342.87159,561.13198 340.50312,560.8677 337.6875,560.45898 C332.05626,559.64155 324.62594,558.23931 317.36133,555.97656 C310.09672,553.71382 303.02046,550.54319 298.11133,546.57812 C293.2022,542.61307 290.5,538.31944 290.5,532.5 C290.5,529.9881 293.7132,523.59453 300.92773,516.71094 C308.14226,509.82735 318.83182,502.2407 331.9082,495.29102 C358.06097,481.39165 393.76307,470 431,470 C434.63462,470 446.70269,469.70144 457.74219,472.41797 C463.26194,473.77623 468.34805,475.90588 471.73047,478.74414 C475.11289,481.58241 477,484.77437 477,490 C477,498.97368 476.04952,498.66233 473.85742,504.14258 C473.364703,505.373861 473.38134,506.750451 473.90367,507.969464 C474.426001,509.188477 475.411229,510.150038 476.64258,510.64258 C477.873861,511.135297 479.250451,511.11866 480.469464,510.59633 C481.688477,510.073999 482.650038,509.088771 483.14258,507.85742 C484.95048,503.33767 487,500.02632 487,490 C487,481.97563 483.32461,475.41759 478.16016,471.08398 C472.9957,466.75037 466.55056,464.28627 460.13281,462.70703 C450.50619,460.33818 440.5433,459.9996 434.95508,459.975504 Z M1936.5059,553.59375 C1932.7831,559.76403 1929.0651,565.95184 1925.4004,572.29492 C1921.4947,571.48995 1918.3407,570.67066 1915.8457,569.79102 C1922.7143,564.51 1929.5921,559.12342 1936.5059,553.59375 Z M2313.9492,561.5 C2318.6326,561.5 2323.2593,562.39118 2326.1562,564.11133 C2329.0532,565.83147 2330.6094,567.74067 2330.6094,572.5 C2330.6094,575.24874 2329.6539,577.39445 2327.2891,579.73633 C2324.9242,582.0782 2321.0478,584.37118 2315.9102,586.23828 C2305.6348,589.97247 2290.513,592 2273.4297,592 C2266.7631,592 2260.8546,591.52378 2255.3535,590.8125 C2257.5874,588.59355 2259.9088,586.41324 2262.3965,584.34375 C2278.4115,571.02089 2298.8062,561.5 2313.9492,561.5 Z M567.5,565.499197 C551.40789,565.499197 532.89141,573.84774 517.75586,584.11133 C510.18808,589.24312 503.52006,594.88753 498.56445,600.5293 C493.60885,606.17106 490,611.70833 490,618 C490,624.24123 493.8103,629.15228 497.99219,630.91797 C502.17408,632.68366 506.25,632.5 509,632.5 C525.20238,632.5 545.5222,622.78013 563.63477,613.44531 C572.69105,608.7779 581.08491,604.13427 587.63867,600.71289 C588.75524,600.12999 589.4378,599.84103 590.43945,599.33594 C590.33383,599.60535 590.32105,599.66441 590.21484,599.9375 C588.39035,604.62906 586.5,610.10965 586.5,616 C586.5,622.15351 589.41394,627.18545 593.25,630.0625 C597.08606,632.93955 601.52778,634 605.5,634 C612.07018,634 621.23007,631.19424 633.07031,627.18945 C644.91056,623.18466 658.82029,617.84573 672.25781,612.38281 C684.3922,607.44967 696.00732,602.4623 705.45117,598.22852 C703.34919,601.00022 701.25379,603.81926 699.21289,606.61133 C694.67047,612.82561 690.51483,618.79136 687.43555,623.40234 C685.89591,625.70784 684.62834,627.66922 683.69336,629.19531 C683.22587,629.95836 682.84411,630.60727 682.52734,631.19141 C682.21058,631.77555 681.95734,631.72112 681.59766,633.51953 C681.169294,635.66705 682.188053,637.843463 684.111569,638.890088 C686.035085,639.936713 688.415826,639.610039 689.98633,638.08398 C698.66304,629.64178 719.21086,613.91021 739.08594,600.66016 C749.02347,594.03513 758.84605,587.97758 766.96875,583.64648 C773.15825,580.34619 777.90057,578.63544 780.78711,577.80859 C780.04529,579.6946 778.59526,582.80458 776.3418,587.01758 C773.36035,592.59158 770,599.63095 770,608 C770,612.54167 772.63329,616.42549 775.72461,618.63672 C778.81593,620.84795 782.33634,621.95933 785.75391,622.69922 C792.58903,624.17899 799.58333,624 800.5,624 C820.94153,624 844.01732,617.99303 858.10352,613.62695 C857.71667,615.04509 857.5,616.49791 857.5,618 C857.5,624.24123 861.3103,629.15228 865.49219,630.91797 C869.67408,632.68366 873.75,632.5 876.5,632.5 C892.7619,632.5 913.06945,622.50786 931.18359,612.91992 C940.24067,608.12595 948.63457,603.35715 955.1875,599.84375 C955.90019,599.46163 956.30728,599.29202 956.97461,598.94141 C953.59607,607.13298 950,617.61691 950,628 C950,633.19896 952.10703,637.72938 955.23242,640.76172 C958.35781,643.79405 962.22719,645.49336 966.05859,646.59961 C973.7214,648.81212 981.88778,648.74888 985.13477,648.98633 C996.56406,649.82262 1015.2561,647.41886 1037.9199,643.40039 C1060.5838,639.38192 1086.9096,633.65967 1112.1758,627.54688 C1137.442,621.43408 1161.6314,614.934 1180.0332,609.33789 C1189.2341,606.53984 1196.9773,603.97445 1202.7715,601.75391 C1205.6686,600.64364 1208.0718,599.62654 1210.0156,598.64648 C1211.9595,597.66643 1213.374,597.20794 1215.0254,594.9668 C1215.81239,593.899251 1216.143,592.562762 1215.94446,591.251427 C1215.74593,589.940091 1215.03453,588.761359 1213.9668,587.97461 C1212.89925,587.187614 1211.56276,586.857007 1210.25142,587.055538 C1208.94009,587.254069 1206.959,588.99007 1205.5137,589.71875 C1204.0684,590.44743 1201.8998,591.37882 1199.1934,592.41602 C1193.7805,594.4904 1186.1878,597.01485 1177.123,599.77148 C1158.9936,605.28475 1134.933,611.75342 1109.8242,617.82812 C1084.7154,623.90283 1058.5412,629.58683 1036.1738,633.55273 C1013.8064,637.51864 994.93594,639.67738 985.86523,639.01367 C981.63222,638.70412 974.54923,638.64098 968.83203,636.99023 C965.97343,636.16486 963.61993,634.96618 962.19531,633.58398 C960.7707,632.20179 960,630.80104 960,628 C960,615.65532 967.61168,599.53691 970.89844,591.92383 C971.11213,591.61341 971.35824,591.34015 971.53516,590.98633 C972.20543,589.64579 972.66323,588.00274 972.96094,585.62109 C972.986842,585.415072 972.999888,585.20764 973,585 C973,579.11905 968.87943,574.014 962.73828,570.71875 C956.59713,567.4235 948.09524,565.499197 937,565.499197 C920.90789,565.499197 901.944,573.82544 886.32031,584.06836 C878.62736,589.11188 871.81244,594.64849 866.6875,600.19531 C861.49562,602.05764 827.18596,614 800.5,614 C798.91667,614 793.16097,614.07101 787.87109,612.92578 C785.22616,612.35317 782.84032,611.4333 781.54102,610.50391 C780.24171,609.57451 780,609.20833 780,608 C780,602.36905 782.38965,596.90842 785.1582,591.73242 C787.92676,586.55642 791.5,582.2381 791.5,576 C791.5,574.41667 791.54118,572.55522 790.15625,570.37891 C788.77132,568.20259 785.75,567 783.5,567 C777.27778,567 770.84605,570.24711 762.26562,574.82227 C753.6852,579.39742 743.66403,585.58987 733.53906,592.33984 C725.47403,597.71654 717.55438,603.36586 710.10938,608.87891 C718.40813,597.80146 727.61493,586.51079 732.12305,582.9043 C734.279178,581.179401 734.628941,578.033285 732.9043,575.87695 C731.179401,573.720822 728.033285,573.371059 725.87695,575.0957 C724.43102,576.25245 722.88469,577.68037 721.26953,579.3125 C720.979438,579.501499 720.55382,579.86687 719.75391,580.32031 C718.95399,580.77375 717.76929,581.39761 716.30078,582.13281 C713.36376,583.60321 709.27081,585.53473 704.40234,587.74414 C694.66542,592.16297 681.80467,597.70511 668.49219,603.11719 C655.17971,608.52927 641.40194,613.81534 629.86719,617.7168 C618.33243,621.61826 608.42982,624 605.5,624 C603.47222,624 600.91394,623.31045 599.25,622.0625 C597.58606,620.81455 596.5,619.34649 596.5,616 C596.5,612.39035 597.85965,607.87094 599.53516,603.5625 C601.21066,599.25406 603.17902,595.46948 603.91992,591.39453 C604.185005,589.935743 603.789054,588.434538 602.838977,587.296256 C601.888901,586.157975 600.482677,585.500003 599,585.5 C598.5239,585.5 598.20059,585.64923 597.7793,585.69531 C597.89601,584.83324 598,583.95667 598,583 C598,578.44167 595.74651,574.44181 592.80664,571.95508 C589.86678,569.46835 586.40678,568.12718 583.03516,567.23047 C576.29191,565.43705 569.5,565.499197 567.5,565.499197 Z M567.5,575.5 C569.5,575.5 575.45809,575.56295 580.46484,576.89453 C582.96822,577.56032 585.13322,578.5629 586.34961,579.5918 C587.56599,580.62069 588,581.30833 588,583 C588,585.75 587.3125,586.63934 586.95312,587.05859 C586.80587,587.2304 586.78586,587.28103 586.79883,587.29688 C584.955067,587.963913 583.671335,589.64704 583.51562,591.60156 C583.32603,591.70013 583.20202,591.74924 583.00977,591.84961 C576.27453,595.36573 567.94445,599.9721 559.05273,604.55469 C541.2693,613.71987 520.79762,622.5 509,622.5 C506.25,622.5 503.32592,622.31634 501.88281,621.70703 C500.4397,621.09772 500,621.25877 500,618 C500,616.29167 501.89115,611.89144 506.07617,607.12695 C510.26119,602.36247 516.37442,597.13188 523.36914,592.38867 C537.35859,582.90226 555.09211,575.5 567.5,575.5 Z M937,575.5 C946.90476,575.5 953.90287,577.3265 958.01172,579.53125 C961.98965,581.66575 962.88284,583.7058 962.93945,584.85156 C962.91503,584.98272 962.91436,584.97937 962.89062,585.08789 C961.73879,585.46599 960.63454,585.98284 959.32422,586.56836 C956.78977,587.70087 953.82897,589.22545 950.46094,591.03125 C943.72487,594.64285 935.39679,599.37405 926.50586,604.08008 C908.724,613.49214 888.2381,622.5 876.5,622.5 C873.75,622.5 870.82592,622.31634 869.38281,621.70703 C867.9397,621.09772 867.5,621.25877 867.5,618 C867.5,616.39583 869.4573,611.97665 873.82227,607.20312 C878.18723,602.42962 884.55403,597.18518 891.80469,592.43164 C906.306,582.92456 924.59211,575.5 937,575.5 Z M1913.3672,579.91797 C1915.4093,580.58168 1917.8326,581.04456 1920.1699,581.51367 C1918.3809,584.67501 1916.6421,587.87597 1914.877,591.0625 C1914.1444,586.83155 1913.5984,582.94416 1913.3672,579.91797 Z M1910.7285,619.78711 C1911.4896,623.17152 1912.0215,625.86982 1912.8066,629.39844 C1918.4793,654.89429 1924.1918,683.6119 1923.0078,704.21289 C1923.00245,704.308499 1922.99985,704.404242 1923,704.5 C1923,736.47727 1913.1105,767.39927 1900.3906,790.05273 C1894.0307,801.37947 1886.9552,810.63283 1880.2891,816.86328 C1873.6229,823.09373 1867.3993,826 1863.5,826 C1862.5,826 1858.0549,825.31936 1854.2266,821.34375 C1850.3982,817.36814 1846.5,809.85053 1846.5,795 C1846.5,774.38159 1856.2388,740.43634 1871.9336,702.05664 C1882.5823,676.01643 1896.0342,647.81727 1910.7285,619.78711 Z" fill="#083D77" fill-rule="nonzero"></path>
        </g>
    </g>
</svg>
